<?xml version="1.0" encoding="UTF-8"?>
<svg width="911px" height="240px" viewBox="0 0 911 240" version="1.1" xmlns="http://www.w3.org/2000/svg" xmlns:xlink="http://www.w3.org/1999/xlink">
    <!-- Generator: Sketch 55.2 (78181) - https://sketchapp.com -->
    <title>Untitled</title>
    <desc>Created with Sketch.</desc>
    <g id="Page-1" stroke="none" stroke-width="1" fill="none" fill-rule="evenodd">
        <g id="test" transform="translate(1.000000, 1.000000)" fill-rule="nonzero">
            <path d="M909,220.992 C909,230.386 901.386,238 891.992,238 L17.008,238 C7.615,238 0,230.386 0,220.992 L0,17.008 C0,7.615 7.615,0 17.008,0 L891.992,0 C901.386,0 909,7.615 909,17.008 L909,220.992 Z" id="Path"></path>
            <g id="Group" transform="translate(256.000000, 90.000000)" fill="#FFFFFF">
                <path d="M56.945,46.635 C56.624,43.983 55.953,38.459 52.197,33.478 C47.547,27.316 39.834,24.189 29.274,24.189 C26.582,24.189 23.665,24.395 20.605,24.806 C12.693,25.868 7.739,30.34 7.531,30.53 L6.726,31.266 L7.287,32.202 L10.992,38.42 L11.806,39.786 L13.013,38.751 C13.07,38.702 19.155,33.644 29.59,33.644 C31.336,33.644 33.132,33.787 34.929,34.068 C40.816,34.988 46.923,37.944 48.015,52.581 C45.865,52.352 41.764,52.007 36.803,52.007 C21.633,52.006 3.083,55.161 0.869,70.199 C-0.347,78.454 1.196,85.141 5.456,90.074 C11.901,97.538 22.477,98.653 28.209,98.653 C32.74,98.653 37.408,97.968 41.352,96.726 C53.415,92.919 55.779,83.76 56.916,79.358 C59.545,69.154 57.862,53.491 57.018,47.229 C56.996,47.055 56.972,46.855 56.945,46.635 Z M10.19,71.836 C11.393,68.513 14.502,64.211 22.474,62.588 C27.238,61.619 31.987,61.127 36.587,61.127 C42.456,61.127 46.576,61.94 48.249,62.338 C48.655,66.369 49.787,83.026 41.235,86.881 C37.373,88.627 32.719,89.586 28.13,89.586 C20.778,89.586 14.678,87.241 11.396,83.156 C9.626,80.942 8.6,76.223 10.19,71.836 Z" id="Shape"></path>
                <path d="M350.977,46.615 C350.651,43.96 349.969,38.433 346.208,33.462 C341.553,27.309 333.844,24.189 323.292,24.189 C320.598,24.189 317.682,24.395 314.621,24.806 C306.728,25.866 301.754,30.336 301.545,30.529 L300.737,31.264 L301.298,32.204 L305.014,38.42 L305.826,39.783 L307.033,38.75 C307.09,38.703 313.186,33.643 323.614,33.643 C325.36,33.643 327.156,33.786 328.951,34.067 C334.839,34.987 340.949,37.943 342.046,52.58 C339.897,52.351 335.794,52.006 330.832,52.006 C315.658,52.005 297.104,55.16 294.893,70.198 C293.678,78.456 295.221,85.14 299.481,90.073 C305.928,97.537 316.503,98.652 322.233,98.652 C326.766,98.652 331.434,97.967 335.381,96.725 C347.456,92.912 349.807,83.755 350.938,79.355 C353.566,69.209 351.895,53.509 351.054,47.229 C351.03,47.048 351.004,46.843 350.977,46.615 Z M304.218,71.829 C305.422,68.509 308.53,64.21 316.503,62.588 C321.266,61.619 326.013,61.127 330.616,61.127 C336.484,61.127 340.609,61.94 342.282,62.338 C342.688,66.372 343.808,83.026 335.266,86.883 C331.402,88.627 326.745,89.586 322.156,89.586 C314.801,89.586 308.703,87.241 305.426,83.156 C303.652,80.939 302.627,76.217 304.218,71.829 Z" id="Shape"></path>
                <path d="M387.323,55.562 C380.142,53.672 375.539,50.146 374.36,45.637 C373.369,41.798 375.486,36.385 380.638,34.332 C382.984,33.398 385.367,32.926 387.716,32.926 C395.678,32.927 400.945,38.291 400.996,38.344 L401.981,39.365 L402.944,38.322 L407.338,33.552 L408.324,32.484 L407.177,31.441 C401.047,26.67 394.021,24 386.857,24 L386.854,24 C379.25,24 372.263,27.168 368.166,32.223 C364.694,36.508 363.498,41.865 364.705,47.576 C366.809,57.535 375.585,60.713 386.696,64.691 C388.171,65.218 389.693,65.784 391.255,66.364 C397.467,68.669 399.741,72.26 400.556,74.858 C401.391,77.521 401.024,80.452 399.599,82.501 C396.711,86.647 392.967,88.756 388.469,88.756 C379.479,88.756 370.329,80.546 370.238,80.462 L369.369,79.674 L368.473,80.431 L362.734,85.279 L361.717,86.135 L362.569,86.927 C362.953,87.39 372.168,98.001 388.255,98.001 L388.401,98.001 C394.777,98.001 400.561,95.563 404.684,90.808 C408.727,86.146 410.578,80.208 409.76,74.316 C408.426,64.757 401.925,59.404 387.323,55.562 Z" id="Path"></path>
                <path d="M455.752,24 L455.35,24 C436.7,24 425.946,38.703 423.848,52.172 C421.506,67.156 423.853,79.174 430.631,87.132 C436.779,94.354 446.35,98 459.078,98 L459.39,98 C474.938,98 482.024,92.371 482.318,92.123 L483.172,91.509 L482.614,90.596 L479.408,85.075 L478.728,83.917 L477.563,84.616 C471.837,88.024 465.303,89.827 458.671,89.827 C452.949,89.827 447.26,88.443 443.452,86.124 C434.66,80.738 432.994,70.049 432.677,66.392 L484.056,66 L485.181,66 L485.377,65.332 C486.019,61.666 485.603,54.018 485.394,50.893 C484.261,34.246 473.18,25 455.752,24 Z M432.813,58 C433.466,53 437.144,33.014 455.375,33.012 L455.608,33.098 C462.148,33.162 467.294,35.074 470.903,39.032 C476.617,45.297 477.045,55.001 477.003,58.001 L432.813,58.001 L432.813,58 Z" id="Shape"></path>
                <path d="M250.989,24.848 C241.177,24.848 235,27.434 232,29.135 L232,1.597 L232,0 L230.49,0 L223.234,0 L221,0 L221,1.597 L221,32.657 L221,65.769 C221,75.385 224.431,84.538 229.433,90.252 C234.033,95.517 242.127,98.659 250.715,98.659 C252.852,98.659 255.175,98.471 257.401,98.1 C268.23,96.301 274.727,91.37 278.991,81.603 C283.587,71.122 284.323,52.034 277.989,40.333 C272.429,30.057 263.395,24.848 250.989,24.848 Z M232.021,40.193 C233.138,38.944 238.241,34.048 249.654,34.048 C250.606,34.048 251.594,34.083 252.59,34.15 C266.667,35.101 273.595,44.272 273.19,61.406 C272.735,80.681 266.855,88.929 252.893,89.871 C252.303,89.91 251.715,89.93 251.147,89.93 C234.78,89.93 232.502,73.798 232.485,73.635 C231.642,66.107 231.83,52.973 232.021,40.193 Z" id="Shape"></path>
                <path d="M108.375,25.017 C106.16,24.648 103.961,24.463 101.84,24.463 C93.316,24.463 85.436,27.604 80.816,32.867 C75.941,38.445 73.001,47.594 73.001,57.344 L73.001,90.459 L73.001,121.391 L73.001,123 L74.4,123 L81.663,123 L83,123 L83,121.391 L83,94.015 C86,95.717 92.124,98.267 101.867,98.267 C114.141,98.267 123.185,93.06 128.746,82.79 C135.064,71.093 134.396,52.012 129.809,41.525 C125.527,31.729 119.117,26.793 108.375,25.017 Z M103.363,88.96 C102.372,89.026 101.388,89.061 100.439,89.061 C89.025,89.061 83.923,84.171 82.8,82.911 C82.606,70.095 82.416,56.907 83.257,49.47 C83.275,49.307 85.533,33.185 101.89,33.183 C102.468,33.183 103.064,33.204 103.663,33.245 C117.612,34.181 123.491,42.431 123.956,61.716 C124.371,78.848 117.442,88.017 103.363,88.96 Z" id="Shape"></path>
                <path d="M182.183,25.017 C179.968,24.648 177.768,24.463 175.646,24.463 C167.118,24.463 159.336,27.606 154.723,32.869 C149.845,38.434 147,47.584 147,57.344 L147,90.459 L147,121.391 L147,123 L148.207,123 L155.477,123 L157,123 L157,121.391 L157,94.015 C160,95.717 166.027,98.267 175.769,98.267 C188.05,98.267 197.047,93.06 202.6,82.788 C208.926,71.085 208.233,52.003 203.641,41.524 C199.359,31.731 192.926,26.795 182.183,25.017 Z M177.17,88.96 C176.18,89.026 175.196,89.061 174.248,89.061 C162.834,89.061 157.732,84.171 156.608,82.911 C156.418,70.093 156.231,56.907 157.066,49.469 C157.084,49.307 159.344,33.185 175.696,33.183 C176.275,33.183 176.871,33.204 177.472,33.245 C191.419,34.181 197.3,42.43 197.767,61.716 C198.183,78.848 191.252,88.014 177.17,88.96 Z" id="Shape"></path>
                <rect id="Rectangle" x="524" y="0" width="6" height="8"></rect>
                <rect id="Rectangle" x="499" y="92" width="5" height="6"></rect>
                <rect id="Rectangle" x="524" y="24" width="6" height="74"></rect>
                <path d="M581.096,24.332 C562.592,24.332 547.584,40.92 547.584,61.404 C547.584,81.879 562.584,98.475 581.096,98.475 C599.608,98.475 614.61,81.878 614.61,61.404 C614.609,40.92 599.607,24.332 581.096,24.332 Z M581.096,93.351 C565.283,93.351 552.476,79.178 552.476,61.686 C552.476,44.19 565.283,30.018 581.096,30.018 C596.903,30.018 609.715,44.19 609.715,61.686 C609.715,79.178 596.902,93.351 581.096,93.351 Z" id="Shape"></path>
            </g>
            <g id="Group" transform="translate(20.000000, 23.000000)" fill="#FFFFFF">
                <path d="M96.897,2.962 C44.683,2.962 2.345,45.294 2.345,97.52 C2.345,149.734 44.683,192.073 96.897,192.073 C149.115,192.073 191.449,149.734 191.449,97.52 C191.449,45.294 149.115,2.962 96.897,2.962 Z M96.897,186.797 C47.582,186.797 7.617,146.827 7.617,97.52 C7.617,48.209 47.582,8.237 96.897,8.237 C146.195,8.237 186.173,48.21 186.173,97.52 C186.173,146.827 146.195,186.797 96.897,186.797 Z" id="Shape"></path>
                <path d="M96.897,194.154 C71.088,194.154 46.822,184.101 28.568,165.847 C10.315,147.595 0.262,123.327 0.262,97.519 C0.262,71.706 10.315,47.438 28.568,29.184 C46.821,10.932 71.088,0.88 96.897,0.88 C122.709,0.88 146.975,10.932 165.227,29.184 C183.48,47.437 193.532,71.705 193.532,97.519 C193.532,123.329 183.48,147.595 165.227,165.847 C146.975,184.102 122.708,194.154 96.897,194.154 Z M96.897,5.045 C45.909,5.045 4.425,46.529 4.425,97.52 C4.425,148.508 45.908,189.99 96.897,189.99 C147.886,189.99 189.369,148.509 189.369,97.52 C189.369,46.529 147.886,5.045 96.897,5.045 Z M96.897,188.88 C72.49,188.88 49.546,179.375 32.291,162.12 C15.038,144.865 5.534,121.924 5.534,97.519 C5.534,73.113 15.038,50.169 32.291,32.913 C49.547,15.656 72.49,6.152 96.897,6.152 C147.273,6.152 188.255,47.14 188.255,97.519 C188.255,147.895 147.273,188.88 96.897,188.88 Z M96.897,10.316 C48.815,10.316 9.698,49.435 9.698,97.519 C9.698,145.598 48.815,184.714 96.897,184.714 C144.977,184.714 184.091,145.598 184.091,97.519 C184.091,49.436 144.978,10.316 96.897,10.316 Z" id="Shape"></path>
            </g>
            <path d="M157.28,103.207 C154.154,103.207 151.384,104.81 149.758,107.23 L119.873,99.016 C119.955,98.404 120.011,97.788 120.011,97.178 C120.011,89.813 114.051,83.861 106.719,83.861 C99.369,83.861 93.414,89.813 93.414,97.178 C93.414,103.003 97.191,107.956 102.431,109.738 L99.869,125.814 C98.569,125.531 97.228,125.375 95.833,125.375 C85.363,125.375 76.892,133.856 76.892,144.314 C76.892,154.781 85.364,163.262 95.833,163.262 C106.286,163.262 114.782,154.781 114.782,144.314 C114.782,141.605 114.198,139.04 113.173,136.703 L149.872,117.475 C151.507,119.806 154.226,121.337 157.281,121.337 C162.309,121.337 166.368,117.283 166.368,112.275 C166.367,107.269 162.309,103.207 157.28,103.207 Z M111.622,133.878 C109.529,130.715 106.525,128.23 102.974,126.779 L105.589,110.414 C105.963,110.438 106.326,110.449 106.719,110.449 C112.307,110.449 117.083,107.012 119.039,102.125 L148.463,110.229 C148.321,110.875 148.229,111.573 148.229,112.276 C148.229,113.054 148.337,113.815 148.523,114.545 L111.622,133.878 Z" id="Shape" fill="#FFFFFF"></path>
            <g id="Group" transform="translate(260.000000, 27.000000)" fill="#FFFFFF">
                <path d="M0.656,2.861 C3.253,2.389 6.851,2.036 11.749,2.036 C17.06,2.036 20.954,3.157 23.491,5.281 C25.851,7.228 27.386,10.355 27.386,14.073 C27.386,17.849 26.206,20.976 23.964,23.1 C21.072,25.992 16.528,27.349 11.396,27.349 C10.039,27.349 8.799,27.289 7.855,27.113 L7.855,42.1 L0.657,42.1 L0.657,2.861 L0.656,2.861 Z M7.854,21.39 C8.74,21.627 9.919,21.685 11.395,21.685 C16.824,21.685 20.127,19.03 20.127,14.369 C20.127,9.943 17.059,7.583 12.043,7.583 C10.037,7.583 8.621,7.76 7.854,7.937 L7.854,21.39 L7.854,21.39 Z" id="Shape"></path>
                <path d="M63.906,27.467 C63.906,38.029 56.471,42.75 49.155,42.75 C41.011,42.75 34.758,37.145 34.758,27.939 C34.758,18.498 40.953,12.715 49.627,12.715 C58.183,12.716 63.906,18.734 63.906,27.467 Z M42.251,27.762 C42.251,33.309 44.966,37.498 49.391,37.498 C53.522,37.498 56.413,33.427 56.413,27.644 C56.413,23.16 54.406,18.026 49.45,18.026 C44.316,18.026 42.251,22.982 42.251,27.762 Z" id="Shape"></path>
                <path d="M78.478,13.365 L81.488,26.405 C82.136,29.473 82.786,32.6 83.317,35.727 L83.434,35.727 C84.025,32.6 84.968,29.414 85.794,26.463 L89.512,13.364 L95.412,13.364 L99.012,26.109 C99.897,29.472 100.664,32.599 101.313,35.726 L101.431,35.726 C101.904,32.599 102.552,29.472 103.32,26.109 L106.506,13.364 L113.646,13.364 L104.619,42.099 L97.892,42.099 L94.469,30.416 C93.584,27.406 92.935,24.692 92.286,21.211 L92.168,21.211 C91.578,24.751 90.811,27.584 89.984,30.416 L86.326,42.099 L79.541,42.099 L71.044,13.364 L78.478,13.364 L78.478,13.365 Z" id="Path"></path>
                <path d="M127.39,29.769 C127.567,34.961 131.638,37.204 136.241,37.204 C139.604,37.204 142.023,36.732 144.207,35.906 L145.269,40.922 C142.791,41.925 139.369,42.692 135.239,42.692 C125.916,42.692 120.428,36.968 120.428,28.176 C120.428,20.21 125.266,12.717 134.471,12.717 C143.794,12.717 146.863,20.388 146.863,26.701 C146.863,28.058 146.745,29.12 146.627,29.769 L127.39,29.769 Z M140.017,24.694 C140.076,22.039 138.896,17.672 134.057,17.672 C129.573,17.672 127.685,21.743 127.39,24.694 L140.017,24.694 Z" id="Shape"></path>
                <path d="M157.419,22.629 C157.419,18.734 157.359,15.961 157.183,13.365 L163.496,13.365 L163.732,18.852 L163.968,18.852 C165.384,14.781 168.747,12.715 171.816,12.715 C172.524,12.715 172.937,12.774 173.527,12.892 L173.527,19.737 C172.937,19.619 172.288,19.502 171.403,19.502 C167.922,19.502 165.561,21.743 164.912,24.989 C164.795,25.637 164.677,26.405 164.677,27.231 L164.677,42.1 L157.419,42.1 L157.419,22.629 Z" id="Path"></path>
                <path d="M187.746,29.769 C187.923,34.961 191.994,37.204 196.597,37.204 C199.96,37.204 202.379,36.732 204.563,35.906 L205.625,40.922 C203.147,41.925 199.725,42.692 195.595,42.692 C186.272,42.692 180.784,36.968 180.784,28.176 C180.784,20.21 185.622,12.717 194.827,12.717 C204.15,12.717 207.219,20.388 207.219,26.701 C207.219,28.058 207.101,29.12 206.983,29.769 L187.746,29.769 Z M200.373,24.694 C200.432,22.039 199.252,17.672 194.413,17.672 C189.929,17.672 188.041,21.743 187.746,24.694 L200.373,24.694 Z" id="Shape"></path>
                <path d="M244.269,0.206 L244.269,34.017 C244.269,36.967 244.387,40.154 244.505,42.101 L238.015,42.101 L237.719,37.558 L237.602,37.558 C235.89,40.744 232.409,42.75 228.22,42.75 C221.375,42.75 215.947,36.908 215.947,28.058 C215.887,18.44 221.906,12.716 228.81,12.716 C232.763,12.716 235.595,14.368 236.894,16.492 L237.011,16.492 L237.011,0.206 L244.269,0.206 Z M237.011,25.343 C237.011,24.753 236.952,24.045 236.834,23.455 C236.185,20.622 233.884,18.321 230.579,18.321 C225.918,18.321 223.322,22.452 223.322,27.821 C223.322,33.072 225.918,36.908 230.52,36.908 C233.47,36.908 236.067,34.902 236.775,31.774 C236.952,31.127 237.01,30.418 237.01,29.65 L237.01,25.343 L237.011,25.343 Z" id="Shape"></path>
                <path d="M273.47,42.101 C273.588,40.154 273.706,36.967 273.706,34.017 L273.706,0.206 L280.964,0.206 L280.964,17.318 L281.082,17.318 C282.852,14.545 285.979,12.715 290.286,12.715 C297.308,12.715 302.323,18.557 302.265,27.289 C302.265,37.615 295.715,42.749 289.225,42.749 C285.507,42.749 282.204,41.333 280.138,37.792 L280.02,37.792 L279.666,42.1 L273.47,42.1 L273.47,42.101 Z M280.964,30.24 C280.964,30.83 281.023,31.421 281.141,31.951 C281.908,34.843 284.446,37.026 287.573,37.026 C292.116,37.026 294.889,33.368 294.889,27.586 C294.889,22.511 292.47,18.38 287.631,18.38 C284.681,18.38 282.026,20.505 281.199,23.691 C281.082,24.222 280.964,24.872 280.964,25.58 L280.964,30.24 Z" id="Shape"></path>
                <path d="M317.012,13.365 L322.204,28.765 C322.795,30.535 323.385,32.718 323.798,34.37 L323.975,34.37 C324.447,32.718 324.978,30.594 325.509,28.705 L329.993,13.364 L337.782,13.364 L330.583,32.954 C326.63,43.692 323.975,48.473 320.553,51.423 C317.72,53.96 314.77,54.904 312.941,55.14 L311.289,49.003 C312.528,48.708 314.062,48.06 315.538,46.997 C316.894,46.112 318.488,44.4 319.491,42.454 C319.786,41.923 319.963,41.51 319.963,41.155 C319.963,40.86 319.904,40.447 319.55,39.739 L309.047,13.364 L317.012,13.364 L317.012,13.365 Z" id="Path"></path>
            </g>
        </g>
    </g>
</svg>