<svg viewBox="0 0 575.09 494.32" xmlns="http://www.w3.org/2000/svg"><g transform="translate(-12.52 -72.04)"><path d="m209.2 164.82c1.93-.31 8.73 1.06 11.55 3 2.81 1.67 4.88 6.38 5.91 9.72 2.37 7-5.62 9.86-6.95 6.83-2.37-5.47-2.37-6.68-6.51-7.9-7.7-2.27-7.4 12.91-7.55 19.43-.44 18.82-.59 36.58 1.33 53.58.6 5.77 2.08 20.34 8.14 19.13 9.62-1.82 2.37-5.92 9.77-8.35 2.81-.91 4.88 3.19 4.88 3.95.3 2.27-2.07 4.85-2.81 6.07-6.21 9.1-21.16 9.26-26.78-.61-3.26-5.46-4-14.12-4.74-23.83-.29-7-1-17.76-1.18-26.87-.3-14.57-.89-32 1.63-40.52 1.62-5.59 6.95-12.57 13.31-13.63z" fill="#1d1d1b"/><path d="m285.85 210.05a195.07 195.07 0 0 1 -.59 20.79c-.3 6.07-1.18 12.75-1.33 20.19-.3 7.13-1.18 14.12-3.7 18.06-1.78 2.89-5.92 6.38-9 6.68a14.78 14.78 0 0 1 -14.65-7.44c-1.48-2.43-3-4.85-3.25-8.35a54 54 0 0 1 -.45-8.34c.74-10.63.45-23.83 1-37.19.44-6.22 0-12.75 0-19 0-9.26-.15-18.22 2.81-23.68 1.63-2.88 4.88-6.38 8.14-7 9.17-1.67 14.35 1.36 18.05 7 .74 1.21 2.67 11.38 2.67 14.72.01 6.86.3 16.12.3 23.56zm-11.24-33.24c-.89-1.52-4.15-3.64-7-2.28-6.95 2.89-5.77 12.6-5.47 23.53.59 13.51-.15 29.14-.15 41.59 0 11.84-3.7 25.19 8 25.34 5.92 0 3.85-14.11 4.88-19.58 2.07-11.08 2.37-54.18 1.93-59.19a26.51 26.51 0 0 0 -2.19-9.41z" fill="#1d1d1b"/><path d="m324.62 200.18c-1.93 0-.74 38.25-2.37 56.92-.74 7.89 1.92 22.77-7.1 19.58-3-.61-3.11-3.94-3.41-7.28.6-27.78 0-78.78 0-89.1 0-5.92-1-19.28 1.63-19.88 3-1.67 24.42-1.07 31.37 4.09 3.11 2.28 3.7 9 4 12.45.59 7.89-.89 13-5.77 18.37-3.97 4.4-18.35 2.73-18.35 4.85zm-2.81-12c0 2.13 14.35 2.28 17.61-1.36 1.92-2.13 2.81-12.6.44-15.33-3-4.25-19.38-3.8-18.65-1.67-.73.61 0 12.3.6 18.37z" fill="#1d1d1b"/><path d="m408.07 165.73c2.52 1.52-8.43 40.37-12.72 59.65-2.81 13.05-6.66 25.19-9.62 38.25-1 3.94-1.19 10.47-4 11.69-3.55.3-5 .75-7.25-1.22-2.37-1.06 1.33-13.36 2.81-19.58 4.3-18.36 9.77-37.19 14.21-55.7-4.59-6.68-9.47-12.75-14.5-19.89-1.48-2.27-4-5.61-3.85-7.43.3-3.65 4.74-5.62 8-3.49 4.59 2.88 9.32 13.5 13.62 16.84 1.77-3.94 1.77-12 4.29-16.54 1.76-3.04 5.61-5.77 9.01-2.58z" fill="#1d1d1b"/><path d="m177.31 334.37c-1.92 0-.74 38.25-2.37 56.92-.74 7.89 1.93 22.77-7.1 19.58-3-.61-3.11-3.95-3.4-7.29.59-27.77 0-78.77 0-89.09 0-5.92-1-19.28 1.63-19.88 3-1.67 24.41-1.07 31.37 4.09 3.1 2.28 3.7 9 4 12.45.59 7.89-.89 13.05-5.77 18.37-4 4.4-18.36 2.73-18.36 4.85zm-2.81-12c0 2.13 14.35 2.28 17.61-1.37 1.92-2.12 2.81-12.59.44-15.32-3-4.25-19.38-3.8-18.64-1.67-.74.61 0 12.3.59 18.37z" fill="#1d1d1b"/><path d="m241.83 299.92c2.22 1.52 3 8.19 3.7 12.75 3.84 22.16 6.06 46.75 11.69 70.12 2.22 9.11 5 20.19 3.7 24.44-10.07 6.37-10.07-5.77-12.43-16.7-2.22-10.32-3.26-19.27-5.48-25.95-2.22.91-6.36.3-9 .6a144.71 144.71 0 0 0 -4.01 21.82c-.89 7.74-1 22.46-3.11 22.46-2.37 1.07-5.77 1.07-6.95-.45-3.26-5.16-1.78-12.29-1.34-18.52.45-8.5 3-18.36 4-27.47.59-5.77 8.73-40.37 9.47-44.17 1.32-7.55 3.69-23.18 9.76-18.93zm-4.29 41.43c-1 4.86-1.48 7.75-2.22 11.84 2.36 0 2.81 1.07 5.47-.45 0-3.34-.74-14.88-2.07-15.48-.3-.15-1.04 3.34-1.18 4.09z" fill="#1d1d1b"/><path d="m314.4 310.72a4.82 4.82 0 0 1 -.36.46 5.51 5.51 0 0 1 -.38.5c.11-.08.25-.15.38-.23s.09-.14.14-.21a1.66 1.66 0 0 0 .26-.49z" fill="#1d1d1b"/><path d="m314.44 310.75a4.82 4.82 0 0 1 -.36.46 5.51 5.51 0 0 1 -.38.5c-1.69 1-2.67 1.85-3.89 1.44a7.88 7.88 0 0 1 -5.08-4.69c-.78-1.65-1.11-2.54-3.51-.48-.68.59-1 1.9-1.11 3.56a43.06 43.06 0 0 0 .63 8.53c.43 2.75.95 5.17 1.22 6.27 1.93 9.11 5.18 19.74 6.67 31.74 1.46 11.37 3.39 23.67 4.13 33.84.44 4.56-.15 9-1.33 11.39-2.66 5.92-10.65 8.95-17.61 5.45-2.22-1.05-7.83-6.22-9-9.71-.59-1.82-1.18-3.94-.29-6.07 1.92-1.67 3.54-3.49 6.81-3.49 4 0 6.51 12.6 9.32 9.25 2.52-6.52.45-14.56-.59-22-.94-6.65-7.31-43-10.34-55.18-.28-1.17-.54-2.13-.76-2.8a23.75 23.75 0 0 1 -1.15-8.37c.24-5.83 2.76-10.95 7.35-13.26a12 12 0 0 1 3.56-1.13c4.13-.56 7.44.27 10 2.12a14.76 14.76 0 0 1 5.12 7.43c.54 1.82 1.27 3.65.59 5.2z" fill="#1d1d1b"/><path d="m431.82 382.79c-2.82-11.79-4.82-23.94-6.57-35.9-.48-3.33-1-6.64-1.42-9.93-1.18-8.29-2.33-16.45-3.7-24.29-.74-4.56-1.48-11.23-3.7-12.75-6.06-4.25-8.44 11.38-9.77 19-.28 1.42-1.6 7.19-3.17 14.12-.67 3-1.38 6.17-2.09 9.33-2 9.14-3.93 18-4.21 20.72-1 9.11-3.55 19-4 27.47-.45 6.23-1.93 13.36 1.33 18.52 1.19 1.52 4.58 1.52 7 .46 2.07 0 2.21-14.73 3.11-22.47a142.25 142.25 0 0 1 4-21.86c2.66-.3 6.81.31 9-.6 2.22 6.68 3.26 15.63 5.48 25.95 2.37 10.93 2.37 23.07 12.43 16.7 1.31-4.26-1.54-15.36-3.72-24.47zm-21.9-29.6c.56-3.14 1-5.57 1.58-8.74.19-.95.4-2 .64-3.1.15-.75.89-4.24 1.18-4.09.74.34 1.3 4.06 1.65 7.88.28 3 .43 6.12.43 7.6-2.67 1.51-3.11.45-5.48.45z" fill="#1d1d1b"/><path d="m372.33 298.7c-6.51-.3-33.74-3.18-34.32 5.47-.16 2.88 3.1 5.61 5.61 6.37 3 .76 9.78-2.12 9.78.61-.14 2.18-.27 4.39-.39 6.65-.18 3.32-.35 6.74-.51 10.21-.65 14.79-1 30.76-1 46.43 0 4.1.59 8.65.29 13.52-.29 8.19-1.33 19.12 4 21.55 9 4.24 6.51-10.33 6.81-17.46 1.16-19.6.06-41.28.52-60.37.09-3.45.21-6.8.43-10.05.24-4 .61-7.79 1.12-11.39 0-2.43 8.44 1.06 11.84-.61 2.49 0 2.34-9.86-4.18-10.93z" fill="#1d1d1b"/><path d="m504.25 449.06h7.55c-43.61 70.34-121.53 117.3-210.22 117.3-136.29 0-248.52-110.42-248.52-246.71 0-21.12 4-42.09 9-61.68h6.6c-5.15 19.56-3.32 39.82-3.32 61 0 132.75 103.44 241 236.2 241 85.03.03 159.86-44.25 202.71-110.91z" fill="#1d1d1b"/><path d="m542.78 247.59h-13.53c-30.52-97.82-119.88-169.17-227.67-169.17-82.39 0-155.26 41.61-198.67 104.92h-7.71c44.26-67.01 120.24-111.34 206.38-111.34 112.25 0 211.13 72.93 241.2 175.59z" fill="#1d1d1b"/><path d="m107.42 282.39a34.09 34.09 0 0 0 -36-32l-11.1.61 4.31 73 45.09-2.67z" fill="#1db5da"/><path d="m66.93 292.09a5.48 5.48 0 0 1 -5.14 5.77 5.47 5.47 0 0 1 -5.79-5.13l-.37-6.29a5.47 5.47 0 0 1 5.13-5.78 5.46 5.46 0 0 1 5.77 5.13z" fill="#b2b2b2"/><path d="m115.56 356.15-2-34.37c-.1-3.52-2.64-4.11-4.48-4l-33.86 1.94a7 7 0 0 1 -7.42-6.61l-.46-7.69a14 14 0 0 0 8.9-13.82l-.37-6.3a14 14 0 0 0 -9.87-12.51l-.64-.76-1.48-13.71c-.08-1.37 1.66-2.7 3-2.78l4.36-.25c17.11-1 33.63 12.14 33.31 29.61a2.41 2.41 0 0 0 2.34 2.4c2.54.07 3.87-2.06 3.72-4.52-1.24-21.09-18.78-37.2-39.87-35.95l-6.84.4-8.46.49-6.84.41a38.3 38.3 0 0 0 -36 40.5l4.32 73.37a38.31 38.31 0 0 0 40.51 36l22.14-1.3a38.33 38.33 0 0 0 35.99-40.55zm-92.46-33.28-2.05-34.73c1.27-14.9 13.27-27.15 27.75-30 2.51-.49 6.59.51 7.15 3l1 12c-4.58 3.72-9.27 7.63-8.9 13.83l.37 6.29c.33 5.54 5.43 9.53 9.19 11.91a2.91 2.91 0 0 1 1.37 2.3c.22 3.77.55 9.33.55 9.39l.16 2.8zm56 65.34-22.14 1.31c-22.31.7-30.58-11.58-31.55-28l-1.81-30.19s60.67-6.81 80.5-4.75c.68.06.79.69 1.29 1.14l1.71 28.94a29.83 29.83 0 0 1 -28.03 31.55z" fill="#1d1d1b"/><path d="m105.39 327.72c-.5-.45-.61-1.08-1.29-1.14-19.83-2.06-80.5 4.75-80.5 4.75l1.78 30.15c1 16.46 9.24 28.74 31.55 28l22.14-1.31a29.83 29.83 0 0 0 28-31.55z" fill="#fff"/><path d="m56.85 292.71c0 4.45 2.77 5.33 5.77 5.17a5.42 5.42 0 0 0 5.14-5.73l-.37-6.3c-.17-3-2.42-4.8-5.78-5.17-2.92.45-5.31 2.72-5.14 5.73z" fill="#dadada"/><path d="m111 290.36a3.27 3.27 0 0 0 -.47-.51 3.84 3.84 0 0 0 -.56-.41 3.6 3.6 0 0 0 -.63-.29 4 4 0 0 0 -.68-.16 3.38 3.38 0 0 0 -1.38.08 3.91 3.91 0 0 0 -.65.24 3.21 3.21 0 0 0 -.59.36 3.27 3.27 0 0 0 -.51.47 3.73 3.73 0 0 0 -.41.57 3.6 3.6 0 0 0 -.29.63 3.63 3.63 0 0 0 -.19 1.37 3.11 3.11 0 0 0 .11.68 3.35 3.35 0 0 0 .24.65 3.67 3.67 0 0 0 .36.6 4.51 4.51 0 0 0 .47.51 3.93 3.93 0 0 0 .57.41 3.55 3.55 0 0 0 .63.28 3.14 3.14 0 0 0 .67.17 4.1 4.1 0 0 0 .7 0 3.86 3.86 0 0 0 .68-.11 3 3 0 0 0 .65-.25 3.67 3.67 0 0 0 .6-.36 4.51 4.51 0 0 0 .51-.47 3.17 3.17 0 0 0 .4-.56 3 3 0 0 0 .29-.63 3.46 3.46 0 0 0 .2-1.37 4.16 4.16 0 0 0 -.12-.69 3.57 3.57 0 0 0 -.6-1.24z" fill="#1d1d1b"/><path d="m59.5 316.85c0-.06-.33-5.62-.55-9.39a2.91 2.91 0 0 0 -1.37-2.3c-3.76-2.38-8.86-6.37-9.19-11.91l-.39-6.25c-.37-6.2 4.32-10.11 8.9-13.83l-1-12c-.56-2.49-4.64-3.49-7.15-3-14.48 2.89-26.48 15.14-27.75 30l2.05 34.73 36.56-3.22z" fill="#fff"/><path d="m62.75 349.77a14.33 14.33 0 0 1 -2.67.21c-2.06.11-4.2.07-6.27 0l-2.36-.36a1.57 1.57 0 0 0 -.28 0c-2.43-.05-2.38-2.25-2.77-2.93a7.74 7.74 0 0 1 0-1.52 3.89 3.89 0 0 1 .13-1.17c.67-2.69 1.69-3 2.9-3a15.52 15.52 0 0 1 2.79.37 1.43 1.43 0 0 0 .29 0c.76 0 1.51.2 2.18.22a64.67 64.67 0 0 0 7.92-.83c1.83-.13 8.93-.48 10.36-.62a29.52 29.52 0 0 1 5.38-.38 4 4 0 0 1 3.4 1.76 4.39 4.39 0 0 1 1 3.23 3.15 3.15 0 0 1 -.66 2 3.6 3.6 0 0 1 -2.67 1.79 66.24 66.24 0 0 1 -8.21-.35 16.87 16.87 0 0 0 -7 .64l-.31.11a11.91 11.91 0 0 1 -1.89.56c-.27.06-.77.21-1.26.27z" fill="#1d1d1b"/><path d="m64.21 361.22a6.69 6.69 0 0 1 -1.9.23 44.4 44.4 0 0 1 -4.47.07l-1.68-.34a.79.79 0 0 0 -.2 0c-1.73 0-1.68-2.23-2-2.91a11 11 0 0 1 0-1.52 5.58 5.58 0 0 1 .1-1.18c.49-2.68 1.22-3 2.09-3a8.56 8.56 0 0 1 2 .36.76.76 0 0 0 .21 0c.54 0 1.07.19 1.55.2 1.87.05 3.77-.59 5.65-.88 1.3-.14 6.36-.53 7.38-.68a14.7 14.7 0 0 1 3.83-.42c.87-.15 1.72.55 2.42 1.74a5.74 5.74 0 0 1 .64 3.22 4 4 0 0 1 -.47 2c-.53 1-1.2 1.83-1.92 1.82a34.59 34.59 0 0 1 -5.84-.3 8.73 8.73 0 0 0 -5 .69 1.07 1.07 0 0 0 -.22.1 7.51 7.51 0 0 1 -1.35.58 7.89 7.89 0 0 0 -.82.22z" fill="#1d1d1b"/><path d="m516.89 329.94c-4.12.85-7.66 1.55-10.25 2-.17-1.36-.35-2.73-.51-4.12a76.75 76.75 0 0 0 10.76 2.12z" fill="#1d1d1b"/><path d="m520.79 353.56c1.55 15.55 5 28 3.66 31.21-1.74 4-9.48.86-10.29-1-1.89-7-3.23-16.44-4.45-26.6l.12-.21c2.09-1.27 3.39-1.96 10.96-3.4z" fill="#1d1d1b"/><path d="m551.68 373a4.31 4.31 0 0 1 -7 1.11c-.88-1-.86-2-1.53-4.65a112.64 112.64 0 0 1 -3.51-19.29c3.78-.59 5.15-.71 8.91-1.22l1.88.13c.18 1.6.36 3.14.53 4.64.8 7.95 2.9 14.77.72 19.28z" fill="#1d1d1b"/><path d="m568.72 331.76c-1.51.37-3 .74-4.55 1.07 0-.33-.09-.67-.14-1 1.76-.05 3.32-.08 4.69-.07z" fill="#1d1d1b"/><path d="m573 314.5c-3.89-.37-5.63-.59-11.17-.81-2.23-20.38-.84-45.95-10.29-59.44-2.39-3.51-5.65-3.94-7.91-2.87a.9.9 0 0 1 -.16 0c.13 1.15.22 2.28.32 3.42 1.74 17 1.18 38.62 3.08 58.87.62 6.53 1.24 12.94 1.85 19.07.11 1.07.2 2.12.32 3.17-4.44.88-6.4 1.27-10.76 1.94-.09-.86-.19-1.72-.28-2.56-.16-1.39-.36-2.75-.55-4.06-.94-5.88-1.66-12-2.23-18.17-2-20.48-2.6-42.28-5.17-62.46-21.44 2.54-18.69 27.84-16.65 45.55.27 2.41 1.15 8.85 2.22 17.24-8.89.24-8.51.58-11.19 1.14-2-17.15-3.61-34.34-2.62-47.64.62-8.47 1.87-16.61 5.81-22.26 3.78-5.29 12.14-7.93 21.39-8.42a64.07 64.07 0 0 1 10 .29c11.7 1.22 22.76 5.53 26.28 12a17.47 17.47 0 0 1 3.35 6.41c2 6.62 1.06 9.15 1.74 13.28.41 13.33.88 23.87 1.77 36.76.3 3.14.57 6.33.85 9.55z" fill="#1d1d1b"/><path d="m579 379.61c-1.79 3.61-7 4.37-7.55-.35-1.85-9.21-3.51-19.32-5-30 7.05.11 7.08.15 9.76-.36.6 8.66 1 17 2.64 25.83.15 1.76.92 3.19.15 4.88z" fill="#1d1d1b"/><path d="m144.09 433.47c-11.45 0-10.54-1.43-11-1.72-4.13-2.58-.92-4.6 1.83-5.31 10.07-3.16 28.84-2.88 46.24-2.75 67.77.27 163.93 1.24 228.49 1.22 24.27.14 45.79-1.59 52.66 3.86 4.58 3-7.78 4.45-18.31 4.89-28.85 1.59-62.73.59-89.29.89-66.84.88-143.31-2.25-210.62-1.08z" fill="#1db5da"/></g><text fill="#1d1d1b" font-family="HappyFox-Condensed, Happy Fox" font-size="59.98" letter-spacing=".04em" transform="matrix(.9999889 .00471237 -.00471237 .9999889 143.8 418.32)">ein nerd am herd</text><path d="m290.67 281.9c-.07 0-.34-.33-.82-1s-1-1.56-1.65-2.58-1.25-2.11-1.84-3.24a14.84 14.84 0 0 1 -1.26-3 6.89 6.89 0 0 1 -.21-2.94 8.52 8.52 0 0 1 .85-2.64 7.82 7.82 0 0 1 1.48-2 4.47 4.47 0 0 1 1.69-1.05 10.1 10.1 0 0 1 2.65-.43 3.93 3.93 0 0 1 1.85.38 3.17 3.17 0 0 1 1.23 1.1 6.12 6.12 0 0 1 .77 1.69 10.45 10.45 0 0 1 .35 3.61 15.56 15.56 0 0 1 -.77 3.75 26.13 26.13 0 0 1 -1.77 4q-1.14 2.03-2.55 4.35zm14.82 33.64c-3.32-1.09-4.18-1.35-4.88-2.84-.59.53-1.41-.83-2-.37a15.1 15.1 0 0 1 -2.78 1.59 42.41 42.41 0 0 0 .64 8.54 24.37 24.37 0 0 0 5.71-2.46 35.47 35.47 0 0 0 4.48-3.14 57.58 57.58 0 0 0 4.26-4.1c-1.73.98-4.2 3.24-5.43 2.78zm18.09.49a.06.06 0 0 0 -.05 0l-3.39-1.65-.11-.07c-2.29-1.13-4.24-2.17-5.85-3l-.15-.07a5.13 5.13 0 0 0 .38-.46c.69-1.55 0-3.38-.69-5.21a15.15 15.15 0 0 0 -4.63-7.05 6.1 6.1 0 0 1 -.76 1.17c-1.3-1.25-2.67-2.54-4.14-3.86s-2.89-2.59-4.22-3.8-2.58-2.3-3.66-3.26-1.88-1.75-2.38-2.29a41.47 41.47 0 0 0 5.13-6.64 31 31 0 0 0 2.95-6.22 19.21 19.21 0 0 0 1-5.61 15.89 15.89 0 0 0 -.57-4.84 11.45 11.45 0 0 0 -6-7.29 13.12 13.12 0 0 0 -4.85-1.28 16 16 0 0 0 -5.53.63 16.17 16.17 0 0 0 -6.05 3.16 18.29 18.29 0 0 0 -6.59 11.27 14.7 14.7 0 0 0 .35 6.5 19.29 19.29 0 0 0 1.58 3.78 35.42 35.42 0 0 0 2.31 3.78c.84 1.25 1.71 2.39 2.6 3.48s1.71 2 2.47 2.77a43.6 43.6 0 0 0 -5.67 6.64 32.47 32.47 0 0 0 -3.55 6.53 22 22 0 0 0 -1.5 6.12 15 15 0 0 0 .45 5.42 12 12 0 0 0 2.75 4.92 12.89 12.89 0 0 0 4.89 3.26c1.55.6 9.56 1.8 11.54 1.22-.28-1.16-1.37-3.33-1.59-4-.9-2.79-6.73-4.56-6.6-7.27a6.63 6.63 0 0 1 -1.24-2.44 10.26 10.26 0 0 1 -.38-3.33 16.14 16.14 0 0 1 .62-3.73 20.74 20.74 0 0 1 1.59-4 26.57 26.57 0 0 1 2.53-4c1.59 1.6 4.14 3.95 5.38 5.11 1.07-.53 1.13-1.88 2.42-2.09 4.13-.55 7.43.27 10 2.13a14.77 14.77 0 0 1 5.12 7.43c.65 1.84 1.39 3.67.7 5.22.12.09.41.3.91.62l2.19 1.39c.82.53 1.66 1 2.5 1.53l.12.06a17.73 17.73 0 0 0 1.76.94c.1.06.67.31 1.62.73 5.24 2.26-.5.17 7.25 2.6 4.27 1.34 15.16 4 20.82 5.09-9.78-3.65-17.7-7.13-23.78-10.07zm-21.08-31.81c-.12.16-.25.34-.38.54s-.22.4-.31.56-.15.27-.13.3a33.43 33.43 0 0 0 2.77 2.28 27.39 27.39 0 0 1 2.17 1.75 9.27 9.27 0 0 1 1.6 1.8 8.34 8.34 0 0 1 1.08 2.45 12.06 12.06 0 0 1 .32 1.35 4.32 4.32 0 0 1 .06 1.35 3.74 3.74 0 0 1 -.13.78c1.35.81 4.16 2.45 8.31 4.65a12.45 12.45 0 0 0 .7-2.29 11.63 11.63 0 0 0 -.1-5.34 10.29 10.29 0 0 0 -1.77-3.51 15 15 0 0 0 -2.76-2.81 18.23 18.23 0 0 0 -3.25-2.07 25.92 25.92 0 0 0 -3.29-1.36 16.91 16.91 0 0 0 -2.8-.71 5 5 0 0 0 -1.83 0 1.2 1.2 0 0 0 -.26.28z" fill="#1d1d1b" opacity=".33" transform="translate(-12.52 -72.04)"/><path d="m325.48 314.29a8.29 8.29 0 0 0 1.4-2 9 9 0 0 0 .82-2.32 4.59 4.59 0 0 0 0-2.1 2.23 2.23 0 0 0 -1.08-1.44l-1.63-.72-2.2-.91-2-.78a3.13 3.13 0 0 0 -1-.28l.35-.51a16.38 16.38 0 0 0 2.65-5.91 11.5 11.5 0 0 0 -.09-5.34 10.47 10.47 0 0 0 -1.77-3.51 15.64 15.64 0 0 0 -2.76-2.81 18.31 18.31 0 0 0 -3.26-2.07 25.33 25.33 0 0 0 -3.29-1.36 15.78 15.78 0 0 0 -2.79-.7 5 5 0 0 0 -1.83 0s-.13.09-.26.27-.25.33-.38.54-.22.4-.32.56-.14.27-.13.3a30.11 30.11 0 0 0 2.78 2.28c.81.61 1.55 1.18 2.17 1.74a9.93 9.93 0 0 1 1.59 1.81 8.09 8.09 0 0 1 1.09 2.45 13.67 13.67 0 0 1 .32 1.34 4.73 4.73 0 0 1 .06 1.36 5 5 0 0 1 -.36 1.47 6.53 6.53 0 0 1 -1 1.59c-1.29-1.24-2.66-2.53-4.13-3.86s-2.89-2.58-4.23-3.8-2.57-2.29-3.65-3.27-1.88-1.74-2.38-2.28a40.94 40.94 0 0 0 5.12-6.64 30.7 30.7 0 0 0 2.95-6.22 18.92 18.92 0 0 0 1-5.61 16.2 16.2 0 0 0 -.57-4.84 11.52 11.52 0 0 0 -6-7.29 13 13 0 0 0 -4.85-1.28 16 16 0 0 0 -5.54.63 16.39 16.39 0 0 0 -6.05 3.16 18.27 18.27 0 0 0 -4.35 5.07 18 18 0 0 0 -2.24 6.21 15 15 0 0 0 .35 6.49 19.92 19.92 0 0 0 1.58 3.78 37.23 37.23 0 0 0 2.32 3.78c.84 1.25 1.7 2.39 2.6 3.48s1.7 2 2.47 2.78a44.73 44.73 0 0 0 -5.68 6.63 32.41 32.41 0 0 0 -3.54 6.53 22 22 0 0 0 -1.5 6.13 14.66 14.66 0 0 0 .45 5.4 12 12 0 0 0 2.74 4.93 12.93 12.93 0 0 0 4.9 3.26 18.41 18.41 0 0 0 5.26 1.12c-.28-1.17-.54-2.13-.76-2.8a23.75 23.75 0 0 1 -1.15-8.37 6.58 6.58 0 0 1 -1.25-2.44 10.85 10.85 0 0 1 -.38-3.32 16.68 16.68 0 0 1 .62-3.74 21.12 21.12 0 0 1 1.6-3.95 27.48 27.48 0 0 1 2.52-4c1.6 1.62 3 3 4.24 4.17a12 12 0 0 1 3.56-1.13c4.13-.56 7.44.27 10 2.12a14.76 14.76 0 0 1 5.12 7.43c.66 1.84 1.39 3.67.71 5.22a9.72 9.72 0 0 0 .91.62l2.18 1.39c.83.53 1.66 1 2.51 1.53l.11.07c.78.44 1.35.76 1.77.94l1.61.72h.05c5.23 2.27 21.07 9.1 21.59 9s-20.23-10.12-19.67-10.7zm-30.56-34.8a4.47 4.47 0 0 1 -.81-1c-.48-.7-1-1.56-1.66-2.58s-1.24-2.11-1.83-3.24a14.84 14.84 0 0 1 -1.26-3 6.84 6.84 0 0 1 -.21-2.93 8.76 8.76 0 0 1 .84-2.65 7.84 7.84 0 0 1 1.49-2 4.47 4.47 0 0 1 1.69-1.05 10 10 0 0 1 2.65-.43 4 4 0 0 1 1.85.38 3.24 3.24 0 0 1 1.23 1.1 6.1 6.1 0 0 1 .76 1.69 10 10 0 0 1 .35 3.61 16 16 0 0 1 -.76 3.75 26.13 26.13 0 0 1 -1.77 4c-.77 1.34-1.61 2.86-2.56 4.35zm14.83 33.64a7.88 7.88 0 0 1 -5.08-4.69c-.59.52-1.21 1-1.85 1.48a15.67 15.67 0 0 1 -2.77 1.6 43.06 43.06 0 0 0 .63 8.53 24.27 24.27 0 0 0 5.72-2.46 34.47 34.47 0 0 0 4.48-3.14 24.79 24.79 0 0 0 2.76-2.76c-1.64.97-2.64 1.85-3.89 1.44z" fill="#ffed00" transform="translate(-12.52 -72.04)"/><path d="m562 314.61c0-.3-.07-.61-.1-.92-4.55-.18-9.06-.32-12.52-.42l-6.32-.14c-2.78-.05-5.36-.08-7.77-.1.57 6.21 1.29 12.29 2.23 18.17.19 1.31.39 2.67.55 4.06l7.54-1.66c1.93-.42 3.8-.83 5.62-1.26l2-.45c6.11 0 10.22-.06 10.38-.06h.39c-.69-5.67-1.37-11.43-2-17.22zm-57.5-.11a10 10 0 0 0 -3.61 1.31 5.55 5.55 0 0 0 -2.76 4.21 6 6 0 0 0 1.64 4.69c1.18 1.26 3.4 2.28 6.39 3.14-.6-4.4-1.16-8.85-1.7-13.35z" fill="#ffed00" transform="translate(-12.52 -72.04)"/><path d="m585.08 346.7a10.45 10.45 0 0 1 -4.68 1.78 72.49 72.49 0 0 1 -14 .77c-3.67 0-8.12-.21-13.5-.56l-1.88-.13c-3.76.51-7.62 1.09-11.41 1.68-5 .8-9.86 1.64-14.18 2.49-1.32-13.34-3.17-28.24-4.63-39.59 3.94-.11 8.7-.16 14.46-.11.57 6.21 1.29 12.29 2.23 18.17.19 1.31.39 2.67.55 4.06l-8.3 1.74c2.69.29 5.46.56 8.27.83l.3-.05c4.36-.67 8.76-1.43 13.2-2.31 4.19-.8 8.4-1.69 12.66-2.68 1.52-.33 3-.7 4.55-1.07-1.37 0-2.93 0-4.69.07-.72-5.67-1.4-11.43-2.07-17.22 0-.3-.07-.61-.1-.92 5.54.22 11.15.51 15 .87a24.92 24.92 0 0 1 4.74.74l3.47 1.34-.33 3.81a4.45 4.45 0 0 1 -2.06 3.45 6.44 6.44 0 0 1 4 4.08 6.34 6.34 0 0 1 -2.68 7.12l-.43.27-2.26 1.23a12.78 12.78 0 0 1 1.5.24 5.35 5.35 0 0 1 2.17 9.86z" fill="#ffed00" transform="translate(-12.52 -72.04)"/><path d="m353 317.8c-.18 3.32-.35 6.74-.51 10.21-1.75-.63-3.46-1.26-5.1-1.88-9.81-3.71-17.73-7.19-23.81-10.1a.06.06 0 0 0 -.05 0l-3.39-1.65-.11-.07c-2.29-1.13-4.24-2.17-5.85-3l-.15-.07a5.13 5.13 0 0 0 .38-.46c.69-1.55 0-3.38-.69-5.21a15.15 15.15 0 0 0 -4.63-7.05 2.74 2.74 0 0 0 .21-.42c.09-.24.17-.47.23-.69 1.35.81 4.16 2.45 8.31 4.65.72.38 1.49.79 2.3 1.2a324.69 324.69 0 0 0 32.86 14.54z" fill="#ffed00" transform="translate(-12.52 -72.04)"/><path d="m308.63 296.82.92.56c-.06.22-.14.45-.23.69a2.74 2.74 0 0 1 -.21.42c-.16-.13-.33-.27-.5-.39z" fill="#ffed00" transform="translate(-12.52 -72.04)"/><path d="m403.49 333c-.67 3-1.38 6.17-2.09 9.33-7-1.58-13.65-3.27-19.76-5-6.65-1.86-12.82-3.78-18.53-5.66.09-3.45.21-6.8.43-10.05 6.52 2.27 13.55 4.5 21.05 6.6 5.86 1.66 12.16 3.27 18.9 4.78z" fill="#ffed00" transform="translate(-12.52 -72.04)"/><path d="m353 317.8q5 1.92 10.51 3.83c-.22 3.25-.34 6.6-.43 10.05q-5.59-1.85-10.59-3.67c.17-3.47.34-6.89.51-10.21z" fill="#1d1d1b" transform="translate(-12.52 -72.04)"/><path d="m415 345.14c-1.17-.23-2.32-.45-3.47-.69.19-.95.4-2 .64-3.1.15-.75.89-4.24 1.18-4.09.71.34 1.27 4.06 1.65 7.88z" fill="#ffed00" transform="translate(-12.52 -72.04)"/><path d="m528.23 539.08-9.54-.93c4-41.67-12-98.52-19.68-125.85-1.45-5.16-2.6-9.24-3.23-11.93-4-16.83 1-41.6 6.46-49.29a373.44 373.44 0 0 1 -77-4.19c-.48-3.33-1-6.64-1.42-9.93a365.41 365.41 0 0 0 76.24 4.65 4.91 4.91 0 0 1 -1.95-5.13 5.08 5.08 0 0 1 4.62-3.84c.76-.12 2.1-.34 3.9-.67 2.59-.48 6.13-1.18 10.24-2a75.17 75.17 0 0 1 -10.75-2.09c-.56-4.4-1.12-8.87-1.67-13.35 2.69-.56 7.45-1.12 16.34-1.36 1.46 11.35 3.31 26.25 4.63 39.58-7.58 1.49-13.5 3-15.59 4.2a1.73 1.73 0 0 1 -.13.21c-3.28 5.46-8.05 26.57-4.6 41 .58 2.5 1.71 6.5 3.13 11.57 7.84 27.86 24.15 85.88 20 129.35z" fill="#ffed00" transform="translate(-12.52 -72.04)"/><path d="m425.25 346.89q-5.26-.83-10.28-1.75c-.35-3.82-.91-7.54-1.65-7.88-.29-.15-1 3.34-1.18 4.09-.24 1.13-.45 2.15-.64 3.1-3.45-.66-6.83-1.38-10.1-2.11.71-3.16 1.42-6.36 2.09-9.33q9.62 2.16 20.33 3.95c.47 3.29.95 6.6 1.43 9.93z" fill="#1d1d1b" transform="translate(-12.52 -72.04)"/></svg>