<?xml version="1.0" encoding="UTF-8"?>
<svg width="575px" height="496px" viewBox="0 0 575 496" version="1.1" xmlns="http://www.w3.org/2000/svg" xmlns:xlink="http://www.w3.org/1999/xlink">
    <!-- Generator: Sketch 58 (84663) - https://sketch.com -->
    <title>logo</title>
    <desc>Created with Sketch.</desc>
    <defs>
        <path d="M148.540236,380.958537 C148.480256,385.756937 149.499916,390.795257 149.439936,395.713617 C151.059396,396.013517 152.558896,396.313417 152.258996,397.932877 C152.079056,399.132477 151.059396,399.372397 149.859796,399.792257 C150.459596,405.310417 150.399616,411.008517 151.179356,416.346737 C153.158696,415.806917 155.797816,415.746937 157.357296,416.526677 C158.197016,417.006517 157.297316,419.345737 156.517576,419.345737 C153.818476,419.645637 151.119376,419.885557 148.540236,420.065497 C146.740836,420.065497 146.680856,417.486357 146.680856,417.006517 C146.500916,414.907217 145.301316,396.673297 145.061396,390.735277 C144.941436,387.976197 144.641536,385.277097 144.401616,382.877897 C144.161696,380.118817 144.401616,378.379397 146.021076,377.539677 C147.400616,376.819917 151.359296,376.520017 153.158696,376.220117 C155.317976,375.860237 156.637536,377.119817 155.737836,378.679297 C154.298316,381.078497 150.939436,379.339077 148.540236,380.958537 Z M166.874956,418.206117 C166.874956,419.705617 166.275156,419.585657 166.155196,419.645637 C165.075556,420.185457 164.235836,419.765597 163.935936,419.405717 C162.616376,418.086157 162.736336,415.626977 162.796316,413.347737 C162.916276,404.470697 163.336136,391.874897 163.336136,383.417717 C163.396116,380.238777 162.676356,377.419717 164.955596,376.520017 C166.215176,375.920217 166.814976,377.539677 166.994916,378.919217 C167.654696,382.697957 167.234836,387.136477 167.354796,390.615317 C167.714676,399.372397 166.395116,409.389057 166.874956,418.206117 Z M177.472256,376.639977 C178.371956,378.979197 181.910776,396.913217 182.390616,400.092157 L181.790816,380.298757 C181.730836,378.019517 182.390616,375.500357 184.010076,376.100157 C185.929436,375.740277 185.869456,377.779597 185.869456,379.219117 C185.749496,383.417717 186.289316,388.815917 185.989416,393.674297 C185.449596,402.551337 186.169356,411.668297 184.849796,419.165797 C184.549896,420.665297 182.090716,420.545337 181.610876,416.766597 C181.490916,415.746937 180.711176,411.308417 180.711176,409.928877 C180.711176,408.189457 177.532236,394.214117 177.472256,394.034177 C177.172356,392.894557 177.292316,392.174797 176.692516,390.795257 C176.692516,391.874897 176.512576,409.628977 176.512576,410.948537 C176.512576,414.607317 176.872456,419.945537 173.813476,419.765597 C171.834136,419.645637 172.433936,416.526677 172.493916,414.007517 C172.553896,412.328077 172.493916,410.528677 172.493916,409.209117 C172.313976,402.131477 172.973756,392.114817 172.973756,385.157137 C172.973756,382.038177 172.853796,378.679297 173.573556,375.860237 C174.173356,374.900557 175.972756,374.360737 177.472256,376.639977 Z M212.462256,376.639977 C213.361956,378.979197 216.900776,396.913217 217.380616,400.092157 L216.780816,380.298757 C216.720836,378.019517 217.380616,375.500357 219.000076,376.100157 C220.919436,375.740277 220.859456,377.779597 220.859456,379.219117 C220.739496,383.417717 221.279316,388.815917 220.979416,393.674297 C220.439596,402.551337 221.159356,411.668297 219.839796,419.165797 C219.539896,420.665297 217.080716,420.545337 216.600876,416.766597 C216.480916,415.746937 215.701176,411.308417 215.701176,409.928877 C215.701176,408.189457 212.522236,394.214117 212.462256,394.034177 C212.162356,392.894557 212.282316,392.174797 211.682516,390.795257 C211.682516,391.874897 211.502576,409.628977 211.502576,410.948537 C211.502576,414.607317 211.862456,419.945537 208.803476,419.765597 C206.824136,419.645637 207.423936,416.526677 207.483916,414.007517 C207.543896,412.328077 207.483916,410.528677 207.483916,409.209117 C207.303976,402.131477 207.963756,392.114817 207.963756,385.157137 C207.963756,382.038177 207.843796,378.679297 208.563556,375.860237 C209.163356,374.900557 210.962756,374.360737 212.462256,376.639977 Z M230.077216,380.958537 C230.017236,385.756937 231.036896,390.795257 230.976916,395.713617 C232.596376,396.013517 234.095876,396.313417 233.795976,397.932877 C233.616036,399.132477 232.596376,399.372397 231.396776,399.792257 C231.996576,405.310417 231.936596,411.008517 232.716336,416.346737 C234.695676,415.806917 237.334796,415.746937 238.894276,416.526677 C239.733996,417.006517 238.834296,419.345737 238.054556,419.345737 C235.355456,419.645637 232.656356,419.885557 230.077216,420.065497 C228.277816,420.065497 228.217836,417.486357 228.217836,417.006517 C228.037896,414.907217 226.838296,396.673297 226.598376,390.735277 C226.478416,387.976197 226.178516,385.277097 225.938596,382.877897 C225.698676,380.118817 225.938596,378.379397 227.558056,377.539677 C228.937596,376.819917 232.896276,376.520017 234.695676,376.220117 C236.854956,375.860237 238.174516,377.119817 237.274816,378.679297 C235.835296,381.078497 232.476416,379.339077 230.077216,380.958537 Z M254.349956,393.434377 C255.729496,395.533677 257.468916,397.812917 258.068716,400.991857 C258.728496,404.590657 258.788476,409.628977 258.728496,413.767597 C258.728496,415.866897 258.908436,418.206117 258.608536,418.446037 C257.948756,419.705617 256.029396,420.725277 255.009736,418.446037 C254.469916,417.126477 255.009736,416.586657 254.469916,408.009517 C254.469916,403.091157 253.810136,399.432377 251.770816,396.733277 C250.931096,395.533677 250.031396,394.334077 247.992076,394.633977 C248.112036,401.111817 247.692176,408.549337 247.692176,414.727277 C247.692176,420.005517 244.453256,421.325077 243.133696,418.685957 C242.893776,409.688957 243.673516,400.751937 243.673516,392.234777 C243.673516,386.596657 242.713836,375.800257 244.513236,376.220117 C245.232996,375.200457 255.909436,375.080497 258.728496,379.578997 C261.127696,383.477697 260.168016,388.276097 257.648856,390.675297 C256.749156,391.994857 255.129696,392.774597 254.349956,393.434377 Z M247.752156,388.875897 C247.752156,389.715617 253.570216,389.475697 254.889776,388.036177 C255.669516,387.196457 256.449256,383.177797 255.489576,382.098157 C254.289976,380.418717 247.212336,379.099157 247.512236,379.938877 C247.212336,380.178799 247.512236,386.476697 247.752156,388.875897 Z M266.626696,420.005517 C265.667016,420.005517 265.667016,420.005517 264.767316,419.705617 C263.327796,418.805917 263.387776,376.999857 265.067216,376.999857 C265.307136,375.260437 268.965916,374.600657 273.044556,375.860237 C279.942256,379.279097 280.841956,385.157137 281.021896,394.094157 C281.141856,405.370397 277.902936,420.005517 266.626696,420.005517 Z M268.785976,414.907217 C269.865616,414.667297 271.305136,413.527677 272.204836,412.567997 C277.063216,407.109817 278.442756,391.095157 274.903936,383.297757 C273.884276,381.018517 272.084876,378.859237 269.205836,378.859237 C267.526396,379.638977 268.006236,414.907217 268.785976,414.907217 Z M310.373776,376.400057 C311.273476,376.999857 311.573376,379.638977 311.873276,381.438377 C313.432756,390.195457 314.332456,399.912217 316.611696,409.149137 C317.511396,412.747937 318.651016,417.126477 318.111196,418.805917 C314.032556,421.325077 314.032556,416.526677 313.072876,412.208117 C312.173176,408.129477 311.753316,404.590657 310.853616,401.951537 C309.953916,402.311417 308.274476,402.071497 307.194836,402.191457 C306.475076,404.650637 305.935256,407.769597 305.575376,410.828577 C305.215496,413.887557 305.155516,419.705617 304.315796,419.705617 C303.356116,420.125477 301.976576,420.125477 301.496736,419.525677 C300.177176,417.486357 300.776976,414.667297 300.956916,412.208117 C301.136856,408.849237 302.156516,404.950537 302.576376,401.351737 C302.816296,399.072497 306.115196,385.397057 306.415096,383.897557 C306.954916,380.898557 307.914596,374.720617 310.373776,376.400057 Z M308.634356,392.774597 C308.214496,394.693957 308.034556,395.833577 307.734656,397.453037 C308.694336,397.453037 308.874276,397.872897 309.953916,397.273097 C309.953916,395.953537 309.654016,391.395057 309.114196,391.155137 C308.994236,391.095157 308.694336,392.474697 308.634356,392.774597 Z M325.289636,375.260437 C326.369276,375.260437 327.508896,380.538677 327.928756,381.678297 C328.108696,382.098157 328.468576,383.117817 328.588536,383.537677 C329.008396,384.497357 329.548216,386.536677 330.028056,386.536677 C330.747816,386.536677 334.106696,378.439377 334.766476,377.239777 C335.186336,376.579997 335.306296,376.220117 335.606196,376.040177 C336.445916,375.560337 337.585536,375.740277 338.065376,376.460037 C338.605196,376.819917 338.125356,379.578997 338.065376,381.258437 C337.705496,392.654637 337.525556,406.390057 337.465576,418.026177 C337.465576,419.285757 336.745816,419.705617 335.846116,419.885557 C335.066376,420.125477 334.226656,419.705617 333.926756,419.165797 C333.506896,418.326077 333.866776,415.746937 333.866776,414.127477 C333.866776,407.709617 334.106696,393.254437 334.526556,386.476697 C333.926756,386.836577 333.926756,387.076497 331.887436,390.735277 C330.447916,392.954537 330.387936,392.714617 329.848116,392.534677 C328.588536,392.294757 326.969076,388.456037 326.729156,387.676297 C326.369276,386.776597 326.369276,386.776597 326.069376,386.536677 C326.069376,389.235777 325.949416,390.555337 325.949416,392.594657 C325.949416,395.773597 325.829456,399.612317 325.649516,403.391057 C325.469576,407.409717 325.709496,411.368397 325.529556,414.667297 C325.409596,416.526677 325.709496,419.045837 324.389936,419.585657 C323.610196,419.945537 322.830456,419.765597 322.530556,419.105817 C321.750816,416.646637 322.170676,413.707617 322.110696,410.348737 C322.110696,408.369397 321.870776,406.330077 321.990736,404.350737 C322.470576,396.013517 322.350616,387.136477 322.530556,380.238777 C322.590536,377.539677 321.630856,374.600657 325.289636,375.260437 Z M369.216656,375.500357 C369.936416,375.500357 370.656176,375.500357 370.656176,376.100157 C371.195996,389.055837 371.615856,403.870897 371.675836,417.486357 C371.675836,418.506017 371.195996,419.405717 370.536216,419.765597 C369.696496,420.005517 369.336616,420.125477 368.436916,419.465697 C367.777136,418.146137 367.897096,416.766597 367.897096,415.267097 C367.957076,409.089157 367.717156,402.671297 367.417256,398.292757 C367.117356,397.752937 363.698496,398.172797 362.618856,398.412717 C362.079036,398.412717 362.139016,408.609317 362.378936,413.107817 C362.498896,415.087157 362.798796,418.086157 361.959076,419.585657 C361.539216,420.365397 360.579536,420.005517 359.739816,419.945537 C357.820456,420.005517 358.600196,412.567997 358.600196,407.829577 C358.600196,399.672297 358.660176,392.054837 358.660176,384.017517 C358.660176,382.038177 358.480236,379.459037 358.720156,378.019517 C358.900096,376.999857 359.739816,375.620317 361.419256,376.280097 C362.978736,376.999857 361.719156,393.074497 362.498896,393.854237 C362.498896,394.334077 367.357276,393.794257 367.417256,393.734277 C368.137016,392.834577 366.757476,379.399057 367.657176,377.059837 C368.017056,376.220117 368.077036,375.500357 369.216656,375.500357 Z M379.873936,380.958537 C379.813956,385.756937 380.833616,390.795257 380.773636,395.713617 C382.393096,396.013517 383.892596,396.313417 383.592696,397.932877 C383.412756,399.132477 382.393096,399.372397 381.193496,399.792257 C381.793296,405.310417 381.733316,411.008517 382.513056,416.346737 C384.492396,415.806917 387.131516,415.746937 388.690996,416.526677 C389.530716,417.006517 388.631016,419.345737 387.851276,419.345737 C385.152176,419.645637 382.453076,419.885557 379.873936,420.065497 C378.074536,420.065497 378.014556,417.486357 378.014556,417.006517 C377.834616,414.907217 376.635016,396.673297 376.395096,390.735277 C376.275136,387.976197 375.975236,385.277097 375.735316,382.877897 C375.495396,380.118817 375.735316,378.379397 377.354776,377.539677 C378.734316,376.819917 382.692996,376.520017 384.492396,376.220117 C386.651676,375.860237 387.971236,377.119817 387.071536,378.679297 C385.632016,381.078497 382.273136,379.339077 379.873936,380.958537 Z M404.146676,393.434377 C405.526216,395.533677 407.265636,397.812917 407.865436,400.991857 C408.525216,404.590657 408.585196,409.628977 408.525216,413.767597 C408.525216,415.866897 408.705156,418.206117 408.405256,418.446037 C407.745476,419.705617 405.826116,420.725277 404.806456,418.446037 C404.266636,417.126477 404.806456,416.586657 404.266636,408.009517 C404.266636,403.091157 403.606856,399.432377 401.567536,396.733277 C400.727816,395.533677 399.828116,394.334077 397.788796,394.633977 C397.908756,401.111817 397.488896,408.549337 397.488896,414.727277 C397.488896,420.005517 394.249976,421.325077 392.930416,418.685957 C392.690496,409.688957 393.470236,400.751937 393.470236,392.234777 C393.470236,386.596657 392.510556,375.800257 394.309956,376.220117 C395.029716,375.200457 405.706156,375.080497 408.525216,379.578997 C410.924416,383.477697 409.964736,388.276097 407.445576,390.675297 C406.545876,391.994857 404.926416,392.774597 404.146676,393.434377 Z M397.548876,388.875897 C397.548876,389.715617 403.366936,389.475697 404.686496,388.036177 C405.466236,387.196457 406.245976,383.177797 405.286296,382.098157 C404.086696,380.418717 397.009056,379.099157 397.308956,379.938877 C397.009056,380.178799 397.308956,386.476697 397.548876,388.875897 Z M416.423416,420.005517 C415.463736,420.005517 415.463736,420.005517 414.564036,419.705617 C413.124516,418.805917 413.184496,376.999857 414.863936,376.999857 C415.103856,375.260437 418.762636,374.600657 422.841276,375.860237 C429.738976,379.279097 430.638676,385.157137 430.818616,394.094157 C430.938576,405.370397 427.699656,420.005517 416.423416,420.005517 Z M418.582696,414.907217 C419.662336,414.667297 421.101856,413.527677 422.001556,412.567997 C426.859936,407.109817 428.239476,391.095157 424.700656,383.297757 C423.680996,381.018517 421.881596,378.859237 419.002556,378.859237 C417.323116,379.638977 417.802956,414.907217 418.582696,414.907217 Z" id="path-1"></path>
    </defs>
    <g id="Page-1" stroke="none" stroke-width="1" fill="none" fill-rule="evenodd">
        <g id="Copy&amp;Pasta" fill-rule="nonzero">
            <path d="M196.68,93.78 C198.61,93.47 205.41,94.84 208.23,96.78 C211.04,98.45 213.11,103.16 214.14,106.5 C216.51,113.5 208.52,116.36 207.19,113.33 C204.82,107.86 204.82,106.65 200.68,105.43 C192.98,103.16 193.28,118.34 193.13,124.86 C192.69,143.68 192.54,161.44 194.46,178.44 C195.06,184.21 196.54,198.78 202.6,197.57 C212.22,195.75 204.97,191.65 212.37,189.22 C215.18,188.31 217.25,192.41 217.25,193.17 C217.55,195.44 215.18,198.02 214.44,199.24 C208.23,208.34 193.28,208.5 187.66,198.63 C184.4,193.17 183.66,184.51 182.92,174.8 C182.63,167.8 181.92,157.04 181.74,147.93 C181.44,133.36 180.85,115.93 183.37,107.41 C184.99,101.82 190.32,94.84 196.68,93.78 Z" id="Path" fill="#1D1D1B"></path>
            <path d="M273.33,139.01 C273.503175,145.945561 273.306228,152.885422 272.74,159.8 C272.44,165.87 271.56,172.55 271.41,179.99 C271.11,187.12 270.23,194.11 267.71,198.05 C265.93,200.94 261.79,204.43 258.71,204.73 C252.77106,205.442971 246.987913,202.506001 244.06,197.29 C242.58,194.86 241.06,192.44 240.81,188.94 C240.444912,186.175787 240.294463,183.387449 240.36,180.6 C241.1,169.97 240.81,156.77 241.36,143.41 C241.8,137.19 241.36,130.66 241.36,124.41 C241.36,115.15 241.21,106.19 244.17,100.73 C245.8,97.85 249.05,94.35 252.31,93.73 C261.48,92.06 266.66,95.09 270.36,100.73 C271.1,101.94 273.03,112.11 273.03,115.45 C273.04,122.31 273.33,131.57 273.33,139.01 Z M262.09,105.77 C261.2,104.25 257.94,102.13 255.09,103.49 C248.14,106.38 249.32,116.09 249.62,127.02 C250.21,140.53 249.47,156.16 249.47,168.61 C249.47,180.45 245.77,193.8 257.47,193.95 C263.39,193.95 261.32,179.84 262.35,174.37 C264.42,163.29 264.72,120.19 264.28,115.18 C264.132562,111.935667 263.390236,108.746041 262.09,105.77 Z" id="Shape" fill="#1D1D1B"></path>
            <path d="M312.1,129.14 C310.17,129.14 311.36,167.39 309.73,186.06 C308.99,193.95 311.65,208.83 302.63,205.64 C299.63,205.03 299.52,201.7 299.22,198.36 C299.82,170.58 299.22,119.58 299.22,109.26 C299.22,103.34 298.22,89.98 300.85,89.38 C303.85,87.71 325.27,88.31 332.22,93.47 C335.33,95.75 335.92,102.47 336.22,105.92 C336.81,113.81 335.33,118.92 330.45,124.29 C326.48,128.69 312.1,127.02 312.1,129.14 Z M309.29,117.14 C309.29,119.27 323.64,119.42 326.9,115.78 C328.82,113.65 329.71,103.18 327.34,100.45 C324.34,96.2 307.96,96.65 308.69,98.78 C307.96,99.39 308.69,111.08 309.29,117.15 L309.29,117.14 Z" id="Shape" fill="#1D1D1B"></path>
            <path d="M395.55,94.69 C398.07,96.21 387.12,135.06 382.83,154.34 C380.02,167.39 376.17,179.53 373.21,192.59 C372.21,196.53 372.02,203.06 369.21,204.28 C365.66,204.58 364.21,205.03 361.96,203.06 C359.59,202 363.29,189.7 364.77,183.48 C369.07,165.12 374.54,146.29 378.98,127.78 C374.39,121.1 369.51,115.03 364.48,107.89 C363,105.62 360.48,102.28 360.63,100.46 C360.93,96.81 365.37,94.84 368.63,96.97 C373.22,99.85 377.95,110.47 382.25,113.81 C384.02,109.87 384.02,101.81 386.54,97.27 C388.3,94.23 392.15,91.5 395.55,94.69 Z" id="Path" fill="#1D1D1B"></path>
            <path d="M164.79,263.33 C162.87,263.33 164.05,301.58 162.42,320.25 C161.68,328.14 164.35,343.02 155.32,339.83 C152.32,339.22 152.21,335.88 151.92,332.54 C152.51,304.77 151.92,253.77 151.92,243.45 C151.92,237.53 150.92,224.17 153.55,223.57 C156.55,221.9 177.96,222.5 184.92,227.66 C188.02,229.94 188.62,236.66 188.92,240.11 C189.51,248 188.03,253.16 183.15,258.48 C179.15,262.88 164.79,261.21 164.79,263.33 Z M161.98,251.33 C161.98,253.46 176.33,253.61 179.59,249.96 C181.51,247.84 182.4,237.37 180.03,234.64 C177.03,230.39 160.65,230.84 161.39,232.97 C160.65,233.58 161.39,245.27 161.98,251.34 L161.98,251.33 Z" id="Shape" fill="#1D1D1B"></path>
            <path d="M229.31,228.88 C231.53,230.4 232.31,237.07 233.01,241.63 C236.85,263.79 239.07,288.38 244.7,311.75 C246.92,320.86 249.7,331.94 248.4,336.19 C238.33,342.56 238.33,330.42 235.97,319.49 C233.75,309.17 232.71,300.22 230.49,293.54 C228.27,294.45 224.13,293.84 221.49,294.14 C219.596946,301.300005 218.256341,308.59477 217.48,315.96 C216.59,323.7 216.48,338.42 214.37,338.42 C212,339.49 208.6,339.49 207.42,337.97 C204.16,332.81 205.64,325.68 206.08,319.45 C206.53,310.95 209.08,301.09 210.08,291.98 C210.67,286.21 218.81,251.61 219.55,247.81 C220.87,240.26 223.24,224.63 229.31,228.88 Z M225.02,270.31 C224.02,275.17 223.54,278.06 222.8,282.15 C225.16,282.15 225.61,283.22 228.27,281.7 C228.27,278.36 227.53,266.82 226.2,266.22 C225.9,266.07 225.16,269.56 225.02,270.31 L225.02,270.31 Z" id="Shape" fill="#1D1D1B"></path>
            <path d="M301.88,239.68 C301.76941,239.84047 301.649189,239.994086 301.52,240.14 C301.402942,240.313756 301.276069,240.480693 301.14,240.64 C301.25,240.56 301.39,240.49 301.52,240.41 C301.65,240.33 301.61,240.27 301.66,240.2 C301.773536,240.052406 301.86143,239.88676 301.92,239.71 L301.88,239.68 Z" id="Path" fill="#1D1D1B"></path>
            <path d="M301.92,239.71 L301.92,239.71 C301.80941,239.87047 301.689189,240.024086 301.56,240.17 C301.442942,240.343756 301.316069,240.510693 301.18,240.67 L301.18,240.67 C299.49,241.67 298.51,242.52 297.29,242.11 C294.96462,241.412662 293.090474,239.682397 292.21,237.42 C291.43,235.77 291.1,234.88 288.7,236.94 C288.02,237.53 287.7,238.84 287.59,240.5 C287.516387,243.357195 287.727427,246.214622 288.22,249.03 C288.65,251.78 289.17,254.2 289.44,255.3 C291.37,264.41 294.62,275.04 296.11,287.04 C297.57,298.41 299.5,310.71 300.24,320.88 C300.68,325.44 300.09,329.88 298.91,332.27 C296.25,338.19 288.26,341.22 281.3,337.72 C279.08,336.67 273.47,331.5 272.3,328.01 C271.71,326.19 271.12,324.07 272.01,321.94 C273.93,320.27 275.55,318.45 278.82,318.45 C282.82,318.45 285.33,331.05 288.14,327.7 C290.66,321.18 288.59,313.14 287.55,305.7 C286.61,299.05 280.24,262.7 277.21,250.52 C276.93,249.35 276.67,248.39 276.45,247.72 C275.569513,245.021152 275.180018,242.186307 275.3,239.35 C275.54,233.52 278.06,228.4 282.65,226.09 C283.770415,225.529833 284.971628,225.148549 286.21,224.96 C290.34,224.4 293.65,225.23 296.21,227.08 C298.650417,228.961485 300.44077,231.559594 301.33,234.51 C301.87,236.33 302.6,238.16 301.92,239.71 Z" id="Path" fill="#1D1D1B"></path>
            <path d="M419.3,311.75 C416.48,299.96 414.48,287.81 412.73,275.85 C412.25,272.52 411.73,269.21 411.31,265.92 L411.31,265.92 C410.13,257.63 408.98,249.47 407.61,241.63 C406.87,237.07 406.13,230.4 403.91,228.88 C397.85,224.63 395.47,240.26 394.14,247.88 C393.86,249.3 392.54,255.07 390.97,262 C390.3,265 389.59,268.17 388.88,271.33 C386.88,280.47 384.95,289.33 384.67,292.05 C383.67,301.16 381.12,311.05 380.67,319.52 C380.22,325.75 378.74,332.88 382,338.04 C383.19,339.56 386.58,339.56 389,338.5 C391.07,338.5 391.21,323.77 392.11,316.03 C392.871244,308.650173 394.208658,301.341209 396.11,294.17 C398.77,293.87 402.92,294.48 405.11,293.57 C407.33,300.25 408.37,309.2 410.59,319.52 C412.96,330.45 412.96,342.59 423.02,336.22 C424.33,331.96 421.48,320.86 419.3,311.75 Z M397.4,282.15 C397.96,279.01 398.4,276.58 398.98,273.41 C399.17,272.46 399.38,271.41 399.62,270.31 C399.77,269.56 400.51,266.07 400.8,266.22 C401.54,266.56 402.1,270.28 402.45,274.1 C402.73,277.1 402.88,280.22 402.88,281.7 C400.21,283.21 399.77,282.15 397.4,282.15 Z" id="Shape" fill="#1D1D1B"></path>
            <path d="M359.81,227.66 C353.3,227.36 326.07,224.48 325.49,233.13 C325.33,236.01 328.59,238.74 331.1,239.5 C334.1,240.26 340.88,237.38 340.88,240.11 C340.74,242.29 340.61,244.5 340.49,246.76 C340.31,250.08 340.14,253.5 339.98,256.97 C339.33,271.76 338.98,287.73 338.98,303.4 C338.98,307.5 339.57,312.05 339.27,316.92 C338.98,325.11 337.94,336.04 343.27,338.47 C352.27,342.71 349.78,328.14 350.08,321.01 C351.24,301.41 350.14,279.73 350.6,260.64 C350.69,257.19 350.81,253.84 351.03,250.59 C351.27,246.59 351.64,242.8 352.15,239.2 C352.15,236.77 360.59,240.26 363.99,238.59 C366.48,238.59 366.33,228.73 359.81,227.66 Z" id="Path" fill="#1D1D1B"></path>
            <path d="M491.73,378.02 L499.28,378.02 C455.67,448.36 377.75,495.32 289.06,495.32 C152.77,495.32 40.54,384.9 40.54,248.61 C40.54,227.49 44.54,206.52 49.54,186.93 L56.14,186.93 C50.99,206.49 52.82,226.75 52.82,247.93 C52.82,380.68 156.26,488.93 289.02,488.93 C374.05,488.96 448.88,444.68 491.73,378.02 Z" id="Path" fill="#1D1D1B"></path>
            <path d="M530.26,176.55 L516.73,176.55 C486.21,78.73 396.85,7.38 289.06,7.38 C206.67,7.38 133.8,48.99 90.39,112.3 L82.68,112.3 C126.94,45.29 202.92,0.96 289.06,0.96 C401.31,0.96 500.19,73.89 530.26,176.55 Z" id="Path" fill="#1D1D1B"></path>
            <path d="M94.9,211.35 C93.7786631,192.580453 77.671569,178.263036 58.9,179.35 L47.8,179.96 L52.11,252.96 L97.2,250.29 L94.9,211.35 Z" id="Path" fill="#1DB5DA"></path>
            <path d="M54.41,221.05 C54.5750355,224.059596 52.278588,226.637514 49.27,226.82 L49.27,226.82 C46.2545324,227.002233 43.6622736,224.705465 43.48,221.69 L43.11,215.4 C42.9335112,212.388327 45.2286764,209.802352 48.24,209.62 L48.24,209.62 C51.2498316,209.443615 53.8329389,211.740208 54.01,214.75 L54.41,221.05 Z" id="Path" fill="#B2B2B2"></path>
            <path d="M103.04,285.11 L101.04,250.74 C100.94,247.22 98.4,246.63 96.56,246.74 L62.7,248.68 C60.8377454,248.794651 59.0067791,248.16111 57.6136248,246.920038 C56.2204705,245.678967 55.3804247,243.933076 55.28,242.07 L54.82,234.38 L54.82,234.38 C60.4634789,232.183142 64.0546504,226.606739 63.72,220.56 L63.35,214.26 C62.9854853,208.441762 59.0537194,203.458338 53.48,201.75 L52.84,200.99 L51.36,187.28 C51.28,185.91 53.02,184.58 54.36,184.5 L58.72,184.25 C75.83,183.25 92.35,196.39 92.03,213.86 C92.034847,215.160258 93.0702808,216.222242 94.37,216.26 C96.91,216.33 98.24,214.2 98.09,211.74 C96.85,190.65 79.31,174.54 58.22,175.79 L51.38,176.19 L51.38,176.19 L42.92,176.68 L42.92,176.68 L36.08,177.09 C25.9339093,177.682543 16.4393626,182.283513 9.68718144,189.879717 C2.93500025,197.475921 -0.521085065,207.444412 0.08,217.59 L4.4,290.96 C4.99509669,301.106961 9.59822401,310.601503 17.1960163,317.353429 C24.7938086,324.105355 34.7633954,327.561139 44.91,326.96 L67.05,325.66 C77.2005968,325.057349 86.6957564,320.446012 93.445615,312.840934 C100.195473,305.235856 103.646813,295.260349 103.04,285.11 Z M10.58,251.83 L8.53,217.1 C9.8,202.2 21.8,189.95 36.28,187.1 C38.79,186.61 42.87,187.61 43.43,190.1 L44.43,202.1 C39.85,205.82 35.16,209.73 35.53,215.93 L35.9,222.22 C36.23,227.76 41.33,231.75 45.09,234.13 C45.8931466,234.628626 46.4040313,235.486316 46.46,236.43 C46.68,240.2 47.01,245.76 47.01,245.82 L47.17,248.62 L10.58,251.83 Z M66.58,317.17 L44.44,318.48 C22.13,319.18 13.86,306.9 12.89,290.48 L11.08,260.29 C11.08,260.29 71.75,253.48 91.58,255.54 C92.26,255.6 92.37,256.23 92.87,256.68 L94.58,285.62 C95.0500032,293.521582 92.3602108,301.285992 87.1029204,307.203492 C81.8456301,313.120991 74.451956,316.706327 66.55,317.17 L66.58,317.17 Z" id="Shape" fill="#1D1D1B"></path>
            <path d="M92.87,256.68 C92.37,256.23 92.26,255.6 91.58,255.54 C71.75,253.48 11.08,260.29 11.08,260.29 L12.86,290.44 C13.86,306.9 22.1,319.18 44.41,318.44 L66.55,317.13 C82.9937195,316.148544 95.5290968,302.02386 94.55,285.58 L92.87,256.68 Z" id="Path" fill="#FFFFFF"></path>
            <path d="M44.33,221.67 C44.33,226.12 47.1,227 50.1,226.84 C51.5436577,226.767797 52.8986671,226.121926 53.8638652,225.045937 C54.8290634,223.969947 55.3244785,222.552991 55.24,221.11 L54.87,214.81 C54.7,211.81 52.45,210.01 49.09,209.64 L49.09,209.64 C46.17,210.09 43.78,212.36 43.95,215.37 L44.33,221.67 Z" id="Path" fill="#DADADA"></path>
            <path d="M98.48,219.32 C98.3418551,219.13382 98.1843025,218.962858 98.01,218.81 C97.836092,218.65671 97.6486599,218.519483 97.45,218.4 C97.2498225,218.283283 97.0388437,218.186166 96.82,218.11 C96.5984331,218.036938 96.370899,217.983401 96.14,217.95 C95.6794007,217.881315 95.209577,217.908551 94.76,218.03 C94.5366579,218.090607 94.3191374,218.170922 94.11,218.27 C93.90095,218.368416 93.703137,218.489115 93.52,218.63 C93.3338198,218.768145 93.1628585,218.925697 93.01,219.1 C92.8557147,219.276686 92.71844,219.467531 92.6,219.67 C92.4832832,219.870177 92.3861659,220.081156 92.31,220.3 C92.1594477,220.740269 92.0949437,221.205377 92.12,221.67 C92.1313737,221.900041 92.1682666,222.128106 92.23,222.35 C92.2873177,222.57438 92.3677478,222.792211 92.47,223 C92.5706168,223.211009 92.6911646,223.411922 92.83,223.6 C92.9733439,223.781812 93.130475,223.952316 93.3,224.11 C93.4773864,224.2634 93.6681476,224.400614 93.87,224.52 C94.0704184,224.633552 94.2814131,224.727327 94.5,224.8 C94.7163966,224.881151 94.941091,224.938163 95.17,224.97 C95.4029067,224.989955 95.6370933,224.989955 95.87,224.97 C96.0994919,224.953672 96.3270645,224.916859 96.55,224.86 C96.7756373,224.802183 96.9937733,224.718285 97.2,224.61 C97.4110091,224.509383 97.611922,224.388835 97.8,224.25 C97.9818118,224.106656 98.1523159,223.949525 98.31,223.78 C98.4632603,223.608402 98.5973838,223.420629 98.71,223.22 C98.8306972,223.021917 98.928014,222.810505 99,222.59 C99.1582867,222.151472 99.2263151,221.685477 99.2,221.22 C99.1794664,220.987036 99.1393241,220.756218 99.08,220.53 C98.962398,220.081634 98.7586048,219.660461 98.48,219.29 L98.48,219.32 Z" id="Path" fill="#1D1D1B"></path>
            <path d="M46.98,245.81 C46.98,245.75 46.65,240.19 46.43,236.42 C46.3740313,235.476316 45.8631466,234.618626 45.06,234.12 C41.3,231.74 36.2,227.75 35.87,222.21 L35.48,215.96 C35.11,209.76 39.8,205.85 44.38,202.13 L43.38,190.13 C42.82,187.64 38.74,186.64 36.23,187.13 C21.75,190.02 9.75,202.27 8.48,217.13 L10.53,251.86 L10.53,251.86 L47.09,248.64 L46.98,245.81 Z" id="Path" fill="#FFFFFF"></path>
            <path d="M50.23,278.73 C49.3485073,278.883198 48.4546042,278.953505 47.56,278.94 C45.5,279.05 43.36,279.01 41.29,278.94 L38.93,278.58 C38.8368529,278.571661 38.7431471,278.571661 38.65,278.58 C36.22,278.53 36.27,276.33 35.88,275.65 C35.8301293,275.144561 35.8301293,274.635439 35.88,274.13 C35.8637294,273.735663 35.9075646,273.341147 36.01,272.96 C36.68,270.27 37.7,269.96 38.91,269.96 C39.8492865,269.998581 40.7831252,270.122423 41.7,270.33 C41.7964169,270.339827 41.8935831,270.339827 41.99,270.33 C42.75,270.33 43.5,270.53 44.17,270.55 C46.8245437,270.436293 49.469557,270.159101 52.09,269.72 C53.92,269.59 61.02,269.24 62.45,269.1 C64.2279808,268.809431 66.0288283,268.682234 67.83,268.72 C69.1887313,268.69098 70.4692468,269.353835 71.23,270.48 C71.9812285,271.379961 72.3413027,272.543001 72.23,273.71 C72.2459834,274.432645 72.0129512,275.138803 71.57,275.71 C71.0105868,276.692949 70.021765,277.355867 68.9,277.5 C66.1587272,277.553359 63.4167857,277.436468 60.69,277.15 C58.3376123,276.869461 55.9525124,277.087528 53.69,277.79 L53.38,277.9 C52.7665564,278.138571 52.1343918,278.325879 51.49,278.46 C51.22,278.52 50.72,278.67 50.23,278.73 Z" id="Path" fill="#1D1D1B"></path>
            <path d="M51.69,290.18 C51.0709628,290.34733 50.4310833,290.42479 49.79,290.41 C48.3021207,290.508379 46.8102301,290.531742 45.32,290.48 L43.64,290.14 C43.5736025,290.131527 43.5063975,290.131527 43.44,290.14 C41.71,290.14 41.76,287.91 41.44,287.23 C41.4049521,286.723939 41.4049521,286.216061 41.44,285.71 C41.4313827,285.314233 41.4649048,284.918673 41.54,284.53 C42.03,281.85 42.76,281.53 43.63,281.53 C44.3085962,281.57016 44.9799928,281.691012 45.63,281.89 C45.6996627,281.899718 45.7703373,281.899718 45.84,281.89 C46.38,281.89 46.91,282.08 47.39,282.09 C49.26,282.14 51.16,281.5 53.04,281.21 C54.34,281.07 59.4,280.68 60.42,280.53 C61.6727105,280.222571 62.9604357,280.081358 64.25,280.11 C65.12,279.96 65.97,280.66 66.67,281.85 C67.1922757,282.838134 67.4147084,283.957248 67.31,285.07 C67.3301322,285.766216 67.1681216,286.455623 66.84,287.07 C66.31,288.07 65.64,288.9 64.92,288.89 C62.9683551,288.955024 61.0147089,288.854665 59.08,288.59 C57.38175,288.322668 55.6423712,288.562703 54.08,289.28 C54.0031257,289.304919 53.9293218,289.338466 53.86,289.38 C53.4300399,289.616995 52.9778764,289.811258 52.51,289.96 C52.2329164,290.018564 51.9591869,290.092003 51.69,290.18 Z" id="Path" fill="#1D1D1B"></path>
            <path d="M504.37,258.9 C500.25,259.75 496.71,260.45 494.12,260.9 C493.95,259.54 493.77,258.17 493.61,256.78 C497.141525,257.742341 500.737369,258.450816 504.37,258.9 Z" id="Path" fill="#1D1D1B"></path>
            <path d="M508.27,282.52 C509.82,298.07 513.27,310.52 511.93,313.73 C510.19,317.73 502.45,314.59 501.64,312.73 C499.75,305.73 498.41,296.29 497.19,286.13 L497.31,285.92 C499.4,284.65 500.7,283.96 508.27,282.52 Z" id="Path" fill="#1D1D1B"></path>
            <path d="M539.16,301.96 C538.547035,303.234628 537.347708,304.127401 535.950806,304.34891 C534.553904,304.570419 533.137219,304.09247 532.16,303.07 C531.28,302.07 531.3,301.07 530.63,298.42 C528.90154,292.104245 527.727092,285.649799 527.12,279.13 C530.9,278.54 532.27,278.42 536.03,277.91 L537.91,278.04 C538.09,279.64 538.27,281.18 538.44,282.68 C539.24,290.63 541.34,297.45 539.16,301.96 Z" id="Path" fill="#1D1D1B"></path>
            <path d="M556.2,260.72 C554.69,261.09 553.2,261.46 551.65,261.79 C551.65,261.46 551.56,261.12 551.51,260.79 C553.27,260.74 554.83,260.71 556.2,260.72 Z" id="Path" fill="#1D1D1B"></path>
            <path d="M560.48,243.46 C556.59,243.09 554.85,242.87 549.31,242.65 C547.08,222.27 548.47,196.7 539.02,183.21 C536.63,179.7 533.37,179.27 531.11,180.34 C531.056772,180.34475 531.003228,180.34475 530.95,180.34 C531.08,181.49 531.17,182.62 531.27,183.76 C533.01,200.76 532.45,222.38 534.35,242.63 C534.97,249.16 535.59,255.57 536.2,261.7 C536.31,262.77 536.4,263.82 536.52,264.87 C532.08,265.75 530.12,266.14 525.76,266.81 C525.67,265.95 525.57,265.09 525.48,264.25 C525.32,262.86 525.12,261.5 524.93,260.19 C523.99,254.31 523.27,248.19 522.7,242.02 C520.7,221.54 520.1,199.74 517.53,179.56 C496.09,182.1 498.84,207.4 500.88,225.11 C501.15,227.52 502.03,233.96 503.1,242.35 C494.21,242.59 494.59,242.93 491.91,243.49 C489.91,226.34 488.3,209.15 489.29,195.85 C489.91,187.38 491.16,179.24 495.1,173.59 C498.88,168.3 507.24,165.66 516.49,165.17 C519.825797,165.00588 523.16932,165.102842 526.49,165.46 C538.19,166.68 549.25,170.99 552.77,177.46 C554.321575,179.339593 555.462693,181.523044 556.12,183.87 C558.12,190.49 557.18,193.02 557.86,197.15 C558.27,210.48 558.74,221.02 559.63,233.91 C559.93,237.05 560.2,240.24 560.48,243.46 Z" id="Path" fill="#1D1D1B"></path>
            <path d="M566.48,308.57 C564.69,312.18 559.48,312.94 558.93,308.22 C557.08,299.01 555.42,288.9 553.93,278.22 C560.98,278.33 561.01,278.37 563.69,277.86 C564.29,286.52 564.69,294.86 566.33,303.69 C566.48,305.45 567.25,306.88 566.48,308.57 Z" id="Path" fill="#1D1D1B"></path>
            <path d="M131.57,362.43 C120.12,362.43 121.03,361 120.57,360.71 C116.44,358.13 119.65,356.11 122.4,355.4 C132.47,352.24 151.24,352.52 168.64,352.65 C236.41,352.92 332.57,353.89 397.13,353.87 C421.4,354.01 442.92,352.28 449.79,357.73 C454.37,360.73 442.01,362.18 431.48,362.62 C402.63,364.21 368.75,363.21 342.19,363.51 C275.35,364.39 198.88,361.26 131.57,362.43 Z" id="Path" fill="#1DB5DA"></path>
            <g id="einnerdamherd" transform="translate(287.572041, 397.557161) rotate(0.270000) translate(-287.572041, -397.557161) ">
                <use fill="#000000" xlink:href="#path-1"></use>
                <use fill="#1D1D1B" xlink:href="#path-1"></use>
            </g>
            <g id="Group" opacity="0.33" transform="translate(259.000000, 183.000000)" fill="#1D1D1B">
                <path d="M19.15,27.86 C19.08,27.86 18.81,27.53 18.33,26.86 C17.85,26.19 17.33,25.3 16.68,24.28 C16.03,23.26 15.43,22.17 14.84,21.04 C14.3113069,20.0892073 13.8887676,19.0831614 13.58,18.04 C13.2987471,17.0866212 13.2271081,16.0836749 13.37,15.1 C13.5072397,14.1794812 13.7943765,13.287668 14.22,12.46 C14.6034373,11.7186218 15.1030934,11.0434109 15.7,10.46 C16.1772969,9.98748107 16.7549377,9.62859181 17.39,9.41 C18.2502634,9.14938371 19.1414677,9.00477319 20.04,8.98 C20.6783874,8.95440632 21.3133892,9.08483912 21.89,9.36 C22.3899171,9.61165495 22.8142953,9.99118019 23.12,10.46 C23.4611432,10.9808831 23.7207988,11.5507765 23.89,12.15 C24.2161942,13.3237339 24.3346446,14.5454646 24.24,15.76 C24.1386671,17.0369292 23.8800436,18.2964594 23.47,19.51 C22.9928319,20.8904592 22.400758,22.2284793 21.7,23.51 C20.94,24.8633333 20.09,26.3133333 19.15,27.86 Z M33.97,61.5 C30.65,60.41 29.79,60.15 29.09,58.66 C28.5,59.19 27.68,57.83 27.09,58.29 C26.2223164,58.9170483 25.2904097,59.4500452 24.31,59.88 C24.2346337,62.7409692 24.44906,65.60222 24.95,68.42 C26.9505567,67.847152 28.8695029,67.0204256 30.66,65.96 C32.2319448,65.0302305 33.729732,63.9804421 35.14,62.82 C36.6292761,61.5271883 38.0511501,60.158718 39.4,58.72 C37.67,59.7 35.2,61.96 33.97,61.5 L33.97,61.5 Z M52.06,61.99 C52.0441273,61.9827247 52.0258727,61.9827247 52.01,61.99 L48.62,60.34 L48.51,60.27 C46.22,59.14 44.27,58.1 42.66,57.27 L42.51,57.2 C42.6454839,57.0541689 42.7723651,56.9005759 42.89,56.74 L42.89,56.74 C43.58,55.19 42.89,53.36 42.2,51.53 C41.3551237,48.7891083 39.7495615,46.3443538 37.57,44.48 C37.3622469,44.8977826 37.1072461,45.2903496 36.81,45.65 C35.51,44.4 34.14,43.11 32.67,41.79 C31.2,40.47 29.78,39.2 28.45,37.99 C27.12,36.78 25.87,35.69 24.79,34.73 C23.71,33.77 22.91,32.98 22.41,32.44 C24.340096,30.405801 26.0588919,28.1810827 27.54,25.8 C28.7512081,23.8426186 29.7406406,21.7564253 30.49,19.58 C31.1003792,17.7701138 31.4374199,15.8793157 31.49,13.97 C31.5500061,12.3369549 31.3577454,10.7044256 30.92,9.13 C30.0616074,5.95012918 27.8754253,3.29391794 24.92,1.84 C23.4006999,1.1053844 21.7539423,0.670776218 20.07,0.56 C18.2040168,0.445313579 16.3323715,0.658538988 14.54,1.19 C12.3214612,1.80085664 10.2588496,2.87818765 8.49,4.35 C4.98173254,7.16807576 2.63547559,11.1805668 1.9,15.62 C1.52945397,17.7855973 1.64905256,20.0067139 2.25,22.12 C2.6409909,23.4325145 3.17064403,24.6996593 3.83,25.9 C4.52037489,27.2069646 5.29188342,28.4694331 6.14,29.68 C6.98,30.93 7.85,32.07 8.74,33.16 C9.63,34.25 10.45,35.16 11.21,35.93 C9.10257864,37.9480322 7.20305598,40.1725173 5.54,42.57 C4.11061984,44.6036085 2.91948476,46.794626 1.99,49.1 C1.19893288,51.0574572 0.693752505,53.1185931 0.49,55.22 C0.308483119,57.0389938 0.460989384,58.875847 0.94,60.64 C1.45305028,62.4750727 2.39571814,64.1615912 3.69,65.56 C5.04722168,67.0087164 6.72071495,68.1243786 8.58,68.82 C10.13,69.42 18.14,70.62 20.12,70.04 C19.84,68.88 18.75,66.71 18.53,66.04 C17.63,63.25 11.8,61.48 11.93,58.77 C11.3514576,58.0517644 10.9291264,57.2207257 10.69,56.33 C10.3816634,55.2483324 10.2532842,54.1233253 10.31,53 C10.3698097,51.7366692 10.577904,50.484747 10.93,49.27 C11.3198294,47.885128 11.8526985,46.5445768 12.52,45.27 C13.2426633,43.8640597 14.0893549,42.5254168 15.05,41.27 C16.64,42.87 19.19,45.22 20.43,46.38 C21.5,45.85 21.56,44.5 22.85,44.29 C26.98,43.74 30.28,44.56 32.85,46.42 C35.2899253,48.3019516 37.0801589,50.8998881 37.97,53.85 C38.62,55.69 39.36,57.52 38.67,59.07 C38.79,59.16 39.08,59.37 39.58,59.69 L41.77,61.08 C42.59,61.61 43.43,62.08 44.27,62.61 L44.39,62.67 C44.9585567,63.0161222 45.5461536,63.3299523 46.15,63.61 C46.25,63.67 46.82,63.92 47.77,64.34 L47.77,64.34 C53.01,66.6 47.27,64.51 55.02,66.94 C59.29,68.28 70.18,70.94 75.84,72.03 C66.06,68.38 58.14,64.9 52.06,61.96 L52.06,61.99 Z M30.98,30.18 C30.86,30.34 30.73,30.52 30.6,30.72 C30.47,30.92 30.38,31.12 30.29,31.28 C30.2,31.44 30.14,31.55 30.16,31.58 C31.0418573,32.3890333 31.9665218,33.150129 32.93,33.86 C33.6825692,34.4061213 34.4068403,34.9902109 35.1,35.61 C35.709335,36.1378734 36.2472064,36.7429787 36.7,37.41 C37.1895978,38.1631726 37.5542965,38.9904985 37.78,39.86 C37.9124842,40.3034865 38.0193276,40.7542322 38.1,41.21 C38.1906939,41.6540664 38.2109415,42.1096387 38.16,42.56 C38.1443519,42.8238634 38.1007751,43.0853244 38.03,43.34 C39.38,44.15 42.19,45.79 46.34,47.99 C46.6463705,47.2509312 46.8807879,46.4840517 47.04,45.7 C47.421374,43.9363447 47.387138,42.1081401 46.94,40.36 C46.5810429,39.087127 45.9800787,37.8953844 45.17,36.85 C44.37751,35.7960917 43.4495117,34.8512819 42.41,34.04 C41.4028352,33.2371252 40.313418,32.5432502 39.16,31.97 C38.095798,31.4418019 36.9965392,30.9873971 35.87,30.61 C34.9586261,30.2939033 34.0218759,30.0563702 33.07,29.9 C32.4651944,29.7874194 31.8448056,29.7874194 31.24,29.9 C31.1389348,29.9788477 31.0511556,30.0733791 30.98,30.18 Z" id="Shape"></path>
            </g>
            <path d="M312.96,243.25 C313.52281,242.656077 313.994591,241.982104 314.36,241.25 C314.73826,240.517855 315.014171,239.737228 315.18,238.93 C315.342282,238.239406 315.342282,237.520594 315.18,236.83 C315.038318,236.219576 314.646336,235.696934 314.1,235.39 L312.47,234.67 L310.27,233.76 L308.27,232.98 C307.954583,232.831636 307.616599,232.737 307.27,232.7 L307.62,232.19 C308.887896,230.41602 309.78884,228.406746 310.27,226.28 C310.659471,224.517601 310.62864,222.688273 310.18,220.94 C309.816904,219.668741 309.21632,218.477753 308.41,217.43 C307.612091,216.380768 306.684739,215.436616 305.65,214.62 C304.639337,213.817017 303.546594,213.123159 302.39,212.55 C301.326587,212.020067 300.227206,211.565611 299.1,211.19 C298.193251,210.872213 297.259372,210.637907 296.31,210.49 C295.705194,210.377419 295.084806,210.377419 294.48,210.49 C294.48,210.49 294.35,210.58 294.22,210.76 C294.09,210.94 293.97,211.09 293.84,211.3 C293.71,211.51 293.62,211.7 293.52,211.86 C293.42,212.02 293.38,212.13 293.39,212.16 C294.270424,212.974697 295.198745,213.736054 296.17,214.44 C296.98,215.05 297.72,215.62 298.34,216.18 C298.941497,216.716565 299.475425,217.324371 299.93,217.99 C300.427093,218.740346 300.795486,219.568385 301.02,220.44 C301.149121,220.881004 301.255923,221.328239 301.34,221.78 C301.425473,222.228069 301.445682,222.686145 301.4,223.14 C301.355283,223.645428 301.233893,224.141105 301.04,224.61 C300.785033,225.185422 300.448216,225.720961 300.04,226.2 C298.75,224.96 297.38,223.67 295.91,222.34 C294.44,221.01 293.02,219.76 291.68,218.54 C290.34,217.32 289.11,216.25 288.03,215.27 C286.95,214.29 286.15,213.53 285.65,212.99 C287.579418,210.957728 289.29508,208.732728 290.77,206.35 C291.983419,204.393823 292.972972,202.307375 293.72,200.13 C294.334645,198.321209 294.671802,196.429761 294.72,194.52 C294.775145,192.887154 294.582971,191.255361 294.15,189.68 C293.283384,186.504377 291.099675,183.851171 288.15,182.39 C286.631759,181.652525 284.984432,181.217767 283.3,181.11 C281.430694,180.994137 279.555561,181.207374 277.76,181.74 C275.543921,182.357092 273.482562,183.433769 271.71,184.9 C269.960725,186.30829 268.486079,188.027016 267.36,189.97 C266.236878,191.884205 265.477441,193.989607 265.12,196.18 C264.760951,198.342914 264.880422,200.558244 265.47,202.67 C265.865351,203.980955 266.394817,205.247652 267.05,206.45 C267.747528,207.754985 268.522236,209.017224 269.37,210.23 C270.21,211.48 271.07,212.62 271.97,213.71 C272.87,214.8 273.67,215.71 274.44,216.49 C272.335007,218.509501 270.432615,220.730075 268.76,223.12 C267.333648,225.153809 266.145849,227.344861 265.22,229.65 C264.428003,231.610628 263.922806,233.675198 263.72,235.78 C263.533143,237.592324 263.68575,239.423601 264.17,241.18 C264.678676,243.017685 265.617952,244.707698 266.91,246.11 C268.271019,247.558885 269.947784,248.674447 271.81,249.37 C273.499058,249.998793 275.271296,250.376151 277.07,250.49 C276.79,249.32 276.53,248.36 276.31,247.69 C275.429513,244.991152 275.040018,242.156307 275.16,239.32 C274.576638,238.603453 274.150728,237.772077 273.91,236.88 C273.61265,235.799596 273.484464,234.67965 273.53,233.56 C273.593863,232.293822 273.801873,231.039054 274.15,229.82 C274.548786,228.452754 275.084848,227.129351 275.75,225.87 C276.473535,224.466752 277.316654,223.128467 278.27,221.87 C279.87,223.49 281.27,224.87 282.51,226.04 C283.630415,225.479833 284.831628,225.098549 286.07,224.91 C290.2,224.35 293.51,225.18 296.07,227.03 C298.510417,228.911485 300.30077,231.509594 301.19,234.46 C301.85,236.3 302.58,238.13 301.9,239.68 C302.191374,239.903696 302.495195,240.110695 302.81,240.3 L304.99,241.69 C305.82,242.22 306.65,242.69 307.5,243.22 L307.61,243.29 C308.39,243.73 308.96,244.05 309.38,244.23 L310.99,244.95 L311.04,244.95 C316.27,247.22 332.11,254.05 332.63,253.95 C333.15,253.85 312.4,243.83 312.96,243.25 Z M282.4,208.45 C282.083179,208.157481 281.810353,207.820658 281.59,207.45 C281.11,206.75 280.59,205.89 279.93,204.87 C279.27,203.85 278.69,202.76 278.1,201.63 C277.571307,200.679207 277.148768,199.673161 276.84,198.63 C276.558631,197.680067 276.486979,196.68035 276.63,195.7 C276.767161,194.777586 277.050731,193.882991 277.47,193.05 C277.856768,192.3081 278.359798,191.632892 278.96,191.05 C279.437297,190.577481 280.014938,190.218592 280.65,190 C281.50999,189.738207 282.401354,189.59357 283.3,189.57 C283.938158,189.547182 284.572505,189.677481 285.15,189.95 C285.648065,190.204366 286.071807,190.583323 286.38,191.05 C286.717918,191.571344 286.974207,192.141251 287.14,192.74 C287.475736,193.91194 287.594353,195.135392 287.49,196.35 C287.387579,197.6259 287.132422,198.8849 286.73,200.1 C286.252832,201.480459 285.660758,202.818479 284.96,204.1 C284.19,205.44 283.35,206.96 282.4,208.45 Z M297.23,242.09 C294.90462,241.392662 293.030474,239.662397 292.15,237.4 C291.56,237.92 290.94,238.4 290.3,238.88 C289.433664,239.506429 288.505496,240.042555 287.53,240.48 C287.456387,243.337195 287.667427,246.194622 288.16,249.01 C290.164381,248.438997 292.086865,247.612194 293.88,246.55 C295.454166,245.623679 296.952216,244.573706 298.36,243.41 C299.35111,242.56397 300.27397,241.64111 301.12,240.65 C299.48,241.62 298.48,242.5 297.23,242.09 Z" id="Shape" fill="#FFED00"></path>
            <path d="M549.459798,243.57 C549.459798,243.27 549.389091,242.96 549.358788,242.65 C544.762828,242.47 540.207273,242.33 536.712323,242.23 L530.328485,242.09 C527.520404,242.04 524.914343,242.01 522.48,241.99 C523.055758,248.2 523.78303,254.28 524.732525,260.16 C524.924444,261.47 525.126465,262.83 525.288081,264.22 L532.904242,262.56 C534.853737,262.14 536.742626,261.73 538.58101,261.3 L540.601212,260.85 C546.772929,260.85 550.924444,260.79 551.086061,260.79 L551.48,260.79 C550.78303,255.12 550.096162,249.36 549.459798,243.57 Z M491.98,243.46 C490.703333,243.659335 489.477397,244.104204 488.37,244.77 C486.829868,245.651407 485.804062,247.216134 485.61,248.98 C485.453296,250.706865 486.051325,252.417084 487.25,253.67 C488.43,254.93 490.65,255.95 493.64,256.81 C493.04,252.41 492.48,247.96 491.94,243.46 L491.98,243.46 Z" id="Shape" fill="#FFED00"></path>
            <path d="M572.56,275.66 C571.167297,276.623822 569.561196,277.23469 567.88,277.44 C563.249177,278.148442 558.560584,278.406315 553.88,278.21 C550.21,278.21 545.76,278 540.38,277.65 L538.5,277.52 C534.74,278.03 530.88,278.61 527.09,279.2 C522.09,280 517.23,280.84 512.91,281.69 C511.59,268.35 509.74,253.45 508.28,242.1 C512.22,241.99 516.98,241.94 522.74,241.99 C523.31,248.2 524.03,254.28 524.97,260.16 C525.16,261.47 525.36,262.83 525.52,264.22 L517.22,265.96 C519.91,266.25 522.68,266.52 525.49,266.79 L525.79,266.74 C530.15,266.07 534.55,265.31 538.99,264.43 C543.18,263.63 547.39,262.74 551.65,261.75 C553.17,261.42 554.65,261.05 556.2,260.68 C554.83,260.68 553.27,260.68 551.51,260.75 C550.79,255.08 550.11,249.32 549.44,243.53 C549.44,243.23 549.37,242.92 549.34,242.61 C554.88,242.83 560.49,243.12 564.34,243.48 C565.940122,243.573654 567.527475,243.821468 569.08,244.22 L572.55,245.56 L572.22,249.37 C572.121188,250.782203 571.356342,252.063134 570.16,252.82 C572.056689,253.481715 573.53597,254.990581 574.16,256.9 C574.948055,259.605182 573.856224,262.505867 571.48,264.02 L571.05,264.29 L568.79,265.52 C569.294316,265.570187 569.795201,265.650329 570.29,265.76 C572.545002,266.034161 574.381013,267.702463 574.869267,269.920978 C575.35752,272.139492 574.391548,274.424459 572.46,275.62 L572.56,275.66 Z" id="Path" fill="#FFED00"></path>
            <path d="M340.48,246.76 C340.3,250.08 340.13,253.5 339.97,256.97 L339.97,256.97 C338.22,256.34 336.51,255.71 334.87,255.09 C325.06,251.38 317.14,247.9 311.06,244.99 C311.044127,244.982725 311.025873,244.982725 311.01,244.99 L307.62,243.34 L307.51,243.27 C305.22,242.14 303.27,241.1 301.66,240.27 L301.51,240.2 C301.645484,240.054169 301.772365,239.900576 301.89,239.74 L301.89,239.74 C302.58,238.19 301.89,236.36 301.2,234.53 C300.355124,231.789108 298.749562,229.344354 296.57,227.48 C296.65189,227.346267 296.722147,227.205751 296.78,227.06 C296.87,226.82 296.95,226.59 297.01,226.37 C298.36,227.18 301.17,228.82 305.32,231.02 C306.04,231.4 306.81,231.81 307.62,232.22 C318.296542,237.669513 329.26667,242.523611 340.48,246.76 L340.48,246.76 Z" id="Path" fill="#FFED00"></path>
            <path d="M296.11,225.78 L297.03,226.34 C296.97,226.56 296.89,226.79 296.8,227.03 C296.742147,227.175751 296.67189,227.316267 296.59,227.45 C296.43,227.32 296.26,227.18 296.09,227.06 L296.11,225.78 Z" id="Path" fill="#FFED00"></path>
            <path d="M390.97,261.96 C390.3,264.96 389.59,268.13 388.88,271.29 L388.88,271.29 C381.88,269.71 375.23,268.02 369.12,266.29 C362.47,264.43 356.3,262.51 350.59,260.63 L350.59,260.63 C350.68,257.18 350.8,253.83 351.02,250.58 C357.54,252.85 364.57,255.08 372.07,257.18 C377.93,258.84 384.23,260.45 390.97,261.96 Z" id="Path" fill="#FFED00"></path>
            <path d="M340.48,246.76 C343.813333,248.04 347.316667,249.316667 350.99,250.59 C350.77,253.84 350.65,257.19 350.56,260.64 C346.833333,259.406667 343.303333,258.183333 339.97,256.97 C340.14,253.5 340.31,250.08 340.48,246.76 Z" id="Path" fill="#1D1D1B"></path>
            <path d="M402.48,274.1 C401.31,273.87 400.16,273.65 399.01,273.41 C399.2,272.46 399.41,271.41 399.65,270.31 C399.8,269.56 400.54,266.07 400.83,266.22 C401.54,266.56 402.1,270.28 402.48,274.1 Z" id="Path" fill="#FFED00"></path>
            <path d="M515.71,468.04 L506.17,467.11 C510.17,425.44 494.17,368.59 486.49,341.26 C485.04,336.1 483.89,332.02 483.26,329.33 C479.26,312.5 484.26,287.73 489.72,280.04 C463.977514,281.30421 438.173307,279.900059 412.72,275.85 L412.72,275.85 C412.24,272.52 411.72,269.21 411.3,265.92 C436.481109,270.129112 462.034005,271.687625 487.54,270.57 C485.905799,269.416788 485.134455,267.38756 485.59,265.44 C486.127071,263.288993 487.997055,261.734721 490.21,261.6 C490.97,261.48 492.31,261.26 494.11,260.93 C496.7,260.45 500.24,259.75 504.35,258.93 C500.720618,258.495629 497.127752,257.79711 493.6,256.84 L493.6,256.84 C493.04,252.44 492.48,247.97 491.93,243.49 C494.62,242.93 499.38,242.37 508.27,242.13 C509.73,253.48 511.58,268.38 512.9,281.71 C505.32,283.2 499.4,284.71 497.31,285.91 C497.271725,285.983008 497.228281,286.053187 497.18,286.12 C493.9,291.58 489.13,312.69 492.58,327.12 C493.16,329.62 494.29,333.62 495.71,338.69 C503.55,366.55 519.86,424.57 515.71,468.04 Z" id="Path" fill="#FFED00"></path>
            <path d="M412.73,275.85 C409.223333,275.296667 405.796667,274.713333 402.45,274.1 C402.1,270.28 401.54,266.56 400.8,266.22 C400.51,266.07 399.8,269.56 399.62,270.31 C399.38,271.44 399.17,272.46 398.98,273.41 C395.53,272.75 392.15,272.03 388.88,271.3 C389.59,268.14 390.3,264.94 390.97,261.97 L390.97,261.97 C397.383333,263.41 404.16,264.726667 411.3,265.92 L411.3,265.92 C411.77,269.21 412.25,272.52 412.73,275.85 Z" id="Path" fill="#1D1D1B"></path>
        </g>
    </g>
</svg>