<?xml version="1.0" encoding="UTF-8"?>
<svg width="565px" height="17px" viewBox="0 0 565 17" version="1.1" xmlns="http://www.w3.org/2000/svg" xmlns:xlink="http://www.w3.org/1999/xlink">
    <g id="Page-1" stroke="none" stroke-width="1" fill="none" fill-rule="evenodd">
        <path d="M558.008,9.4701 C557.542,8.0411 557.111,7.0491 557.06,5.9511 C557.039,5.4861 557.058,5.0041 557.158,4.5501 C557.327,3.7931 558.239,3.5371 558.828,4.0321 C559.418,4.5281 559.66,5.1621 559.59,5.9131 C559.476,7.1071 559.074,8.1851 558.008,9.4701 Z M540.201,8.6401 C539.379,6.6321 539.49,5.8821 540.641,4.8241 C541.334,6.0991 541.334,6.0991 540.201,8.6401 Z M521.079,7.6211 C520.997,8.2871 520.692,8.8091 519.924,9.0641 C519.068,8.2711 519.308,7.2301 519.343,6.2491 C519.369,5.5251 519.391,5.5271 520.322,4.6391 C521.315,5.5661 521.206,6.5971 521.079,7.6211 Z M496.545,9.3101 C495.788,7.9041 496.065,6.8101 496.287,5.6271 C497.603,6.6851 497.655,7.2261 496.545,9.3101 Z M476.305,9.5101 C475.711,8.4041 475.992,7.4571 476.358,6.5441 C476.408,6.4181 477,6.3321 477.126,6.4531 C477.373,6.6871 477.596,7.0791 477.602,7.4101 C477.617,8.3021 477.131,8.9371 476.305,9.5101 Z M454.114,8.4451 C453.473,7.6421 453.446,6.6971 453.565,5.7581 C453.61,5.4051 453.875,5.0521 454.116,4.7621 C454.244,4.6091 454.589,4.4671 454.738,4.5341 C454.988,4.6471 455.284,4.9041 455.343,5.1521 C455.636,6.4351 455.32,7.2181 454.114,8.4451 Z M433.868,8.3181 C433.155,7.8261 432.929,7.0621 432.952,6.2891 C432.966,5.7891 433.211,5.2401 433.51,4.8261 C433.684,4.5831 434.174,4.4481 434.504,4.4761 C434.723,4.4961 435.004,4.8571 435.095,5.1221 C435.504,6.3131 435.151,7.1851 433.868,8.3181 Z M415.763,8.8571 C414.951,7.7441 414.896,6.5561 415.298,5.3341 C415.369,5.1191 415.734,4.9311 415.993,4.8771 C416.138,4.8451 416.425,5.0741 416.512,5.2531 C417.132,6.5071 416.944,7.3991 415.763,8.8571 Z M398.476,7.3481 C398.424,7.3821 398.327,7.3831 398.264,7.3621 C397.64,7.1671 397.219,6.2341 397.273,5.1231 C397.316,4.9491 397.307,4.6661 397.446,4.5121 C397.63,4.3061 397.915,4.1311 398.183,4.0791 C398.349,4.0481 398.634,4.2241 398.739,4.3881 C398.902,4.6391 399.009,4.9531 399.042,5.2501 C399.128,6.0151 399.275,6.8181 398.476,7.3481 Z M378.049,8.7421 C377.057,7.9291 377.065,6.9021 377.061,5.9551 C377.058,5.2931 377.128,4.5161 378.086,4.2171 C379.126,5.6851 378.735,7.1141 378.049,8.7421 Z M358.249,8.8381 C357.28,8.0291 357.147,7.1301 357.297,6.1581 C357.41,5.4281 357.685,4.7931 358.506,4.6011 C359.663,6.0001 359.633,6.7051 358.249,8.8381 Z M339.516,9.1651 C338.741,7.9491 338.557,6.7951 338.925,5.4491 C339.963,5.5891 340.172,6.3591 340.412,7.0561 C340.691,7.8711 340.563,8.5861 339.516,9.1651 Z M318.617,7.9301 C318.573,8.0641 318.256,8.1091 318.067,8.1931 C317.464,7.4111 317.183,6.6351 317.547,5.7261 C317.708,5.3211 317.997,5.0661 318.435,5.0991 C318.905,5.1361 319.161,5.5291 319.116,5.9101 C319.036,6.5931 318.831,7.2711 318.617,7.9301 Z M297.47,7.8251 C296.582,6.8711 296.568,5.9311 296.8,4.9991 C296.876,4.6931 297.245,4.3811 297.558,4.2371 C297.903,4.0771 298.388,4.5861 298.431,5.1351 C298.507,6.0921 298.293,6.9651 297.47,7.8251 Z M279.708,4.5501 C279.876,3.7931 280.788,3.5371 281.376,4.0321 C281.966,4.5281 282.21,5.1621 282.14,5.9131 C282.025,7.1071 281.622,8.1851 280.557,9.4701 C280.091,8.0411 279.658,7.0491 279.609,5.9511 C279.588,5.4861 279.607,5.0041 279.708,4.5501 Z M262.75,8.6401 C261.928,6.6321 262.039,5.8821 263.191,4.8241 C263.882,6.0991 263.882,6.0991 262.75,8.6401 Z M243.628,7.6211 C243.546,8.2871 243.239,8.8091 242.472,9.0641 C241.615,8.2711 241.857,7.2301 241.892,6.2491 C241.919,5.5251 241.94,5.5271 242.87,4.6391 C243.863,5.5661 243.755,6.5971 243.628,7.6211 Z M219.093,9.3101 C218.338,7.9041 218.614,6.8101 218.836,5.6271 C220.151,6.6851 220.203,7.2261 219.093,9.3101 Z M198.854,9.5101 C198.261,8.4041 198.542,7.4571 198.906,6.5441 C198.957,6.4181 199.549,6.3321 199.675,6.4531 C199.922,6.6871 200.144,7.0791 200.15,7.4101 C200.166,8.3021 199.679,8.9371 198.854,9.5101 Z M176.663,8.4451 C176.022,7.6421 175.994,6.6971 176.114,5.7581 C176.158,5.4051 176.425,5.0521 176.665,4.7621 C176.793,4.6091 177.138,4.4671 177.286,4.5341 C177.536,4.6471 177.834,4.9041 177.891,5.1521 C178.185,6.4351 177.868,7.2181 176.663,8.4451 Z M156.416,8.3181 C155.703,7.8261 155.478,7.0621 155.501,6.2891 C155.515,5.7891 155.76,5.2401 156.058,4.8261 C156.233,4.5831 156.723,4.4481 157.053,4.4761 C157.272,4.4961 157.553,4.8571 157.643,5.1221 C158.053,6.3131 157.699,7.1851 156.416,8.3181 Z M138.311,8.8571 C137.5,7.7441 137.444,6.5561 137.847,5.3341 C137.918,5.1191 138.282,4.9311 138.542,4.8771 C138.686,4.8451 138.973,5.0741 139.061,5.2531 C139.681,6.5071 139.492,7.3991 138.311,8.8571 Z M121.025,7.3481 C120.972,7.3821 120.876,7.3831 120.812,7.3621 C120.189,7.1671 119.767,6.2341 119.822,5.1231 C119.864,4.9491 119.856,4.6661 119.993,4.5121 C120.179,4.3061 120.464,4.1311 120.732,4.0791 C120.897,4.0481 121.182,4.2241 121.288,4.3881 C121.45,4.6391 121.558,4.9531 121.591,5.2501 C121.677,6.0151 121.823,6.8181 121.025,7.3481 Z M100.598,8.7421 C99.606,7.9291 99.614,6.9021 99.61,5.9551 C99.607,5.2931 99.677,4.5161 100.635,4.2171 C101.674,5.6851 101.283,7.1141 100.598,8.7421 Z M80.798,8.8381 C79.828,8.0291 79.696,7.1301 79.846,6.1581 C79.96,5.4281 80.234,4.7931 81.054,4.6011 C82.212,6.0001 82.182,6.7051 80.798,8.8381 Z M62.064,9.1651 C61.29,7.9491 61.106,6.7951 61.474,5.4491 C62.513,5.5891 62.721,6.3591 62.961,7.0561 C63.239,7.8711 63.112,8.5861 62.064,9.1651 Z M41.166,7.9301 C41.122,8.0641 40.805,8.1091 40.615,8.1931 C40.013,7.4111 39.732,6.6351 40.095,5.7261 C40.258,5.3211 40.546,5.0661 40.984,5.0991 C41.453,5.1361 41.71,5.5291 41.665,5.9101 C41.585,6.5931 41.381,7.2711 41.166,7.9301 Z M20.019,7.8251 C19.131,6.8711 19.117,5.9311 19.349,4.9991 C19.425,4.6931 19.794,4.3811 20.106,4.2371 C20.451,4.0771 20.936,4.5861 20.979,5.1351 C21.056,6.0921 20.842,6.9651 20.019,7.8251 Z M563.801,13.7561 C563.16,13.6991 562.595,13.7301 562.076,13.5861 C561.409,13.3981 560.729,13.1561 560.152,12.7841 C559.283,12.2221 559.191,11.7181 559.73,10.7891 C560.448,9.5531 561.114,8.2951 561.389,6.8921 C561.537,6.1361 561.578,5.3201 561.471,4.5601 C561.24,2.9311 559.6,1.4511 558.106,1.3831 C556.416,1.3071 555.345,2.1941 554.716,4.0841 C554.196,5.6481 554.352,7.1951 554.683,8.7521 C554.825,9.4221 554.987,10.0901 555.126,10.7071 C550.464,13.4701 544.027,13.4001 541.502,10.7541 C541.602,10.5631 541.665,10.3201 541.818,10.1621 C543.364,8.5451 543.264,6.5781 542.982,4.5931 C542.819,3.4491 541.703,2.2681 540.74,2.0871 C539.19,1.7951 537.654,2.5691 537.083,4.0281 C536.376,5.8361 536.094,7.6741 536.931,9.5471 C537.109,9.9421 537.156,10.3971 537.249,10.7691 C536.989,10.9521 536.876,11.0741 536.736,11.1251 C533.048,12.4591 529.222,12.8931 525.339,12.6441 C523.955,12.5551 522.564,12.1211 521.381,11.0101 C521.726,10.6191 522.029,10.2881 522.319,9.9451 C523.916,8.0491 524.015,5.0191 522.543,3.1621 C521.539,1.8951 519.368,1.6591 518.106,2.6851 C516.945,3.6291 516.234,4.7881 516.293,6.3501 C516.332,7.3821 516.416,8.3811 516.918,9.3221 C517.197,9.8461 517.326,10.4521 517.532,11.0451 C516.235,11.8221 515.033,12.3431 513.67,12.5071 C512.497,12.6481 511.328,12.8511 510.176,13.1091 C507.178,13.7791 504.211,13.2991 501.248,12.8921 C500.559,12.7971 499.88,12.5061 499.242,12.2071 C498.851,12.0231 498.546,11.6541 498.239,11.4001 C498.592,10.3771 498.931,9.4951 499.204,8.5931 C499.755,6.7761 499.284,5.1401 498.115,3.7311 C497.316,2.7641 496.217,2.3211 494.94,2.6111 C493.365,2.9681 492.555,4.1831 492.766,6.0351 C492.918,7.3671 493.287,8.6601 493.974,9.8431 C494.237,10.2971 494.423,10.7911 494.658,11.2971 C493.541,12.1961 492.272,12.4271 491.099,12.8381 C488.317,13.8131 485.427,14.2241 482.487,14.0131 C480.666,13.8851 478.959,13.3321 477.489,11.9611 C477.788,11.4881 478.052,11.1131 478.27,10.7171 C478.65,10.0271 479.086,9.3531 479.349,8.6181 C480.094,6.5311 479.254,4.3591 477.381,3.3291 C476.223,2.6911 475.035,2.8151 474.162,3.7831 C473.759,4.2311 473.463,4.8101 473.237,5.3771 C472.639,6.8651 473.135,8.3311 473.447,9.7881 C473.573,10.3871 474.015,10.9391 473.611,11.7421 C473.034,12.0391 472.364,12.4611 471.639,12.7361 C470.832,13.0431 469.981,13.2381 469.139,13.4461 C465.368,14.3811 461.632,14.1271 457.94,13.0331 C456.947,12.7381 456.059,12.2291 455.427,11.2571 C455.888,10.6271 456.383,10.0151 456.804,9.3571 C457.632,8.0621 458.132,6.6701 457.803,5.0971 C457.473,3.5201 456.065,2.3741 454.405,2.3161 C452.958,2.2641 451.558,3.3641 451.103,4.8341 C450.665,6.2401 450.668,7.6231 451.115,9.0211 C451.324,9.6741 451.774,10.2831 451.513,11.1031 C451.283,11.2461 451.038,11.4591 450.753,11.5641 C447.066,12.9411 443.245,13.3201 439.361,12.8451 C437.69,12.6421 436.16,12.0031 435.271,10.2871 C435.656,9.7891 436.061,9.3131 436.41,8.7991 C437.765,6.8021 437.466,4.4351 435.733,2.7991 C434.676,1.8031 433.402,1.7241 432.21,2.1571 C431.163,2.5381 430.455,3.4541 430.363,4.6951 C430.248,6.2011 430.171,7.6901 430.909,9.0921 C431.119,9.4901 431.26,9.9251 431.488,10.4761 C427.824,12.2571 424.196,13.3741 420.224,12.5641 C418.949,12.3051 417.619,11.9591 416.927,10.5761 C417.231,10.1081 417.448,9.6851 417.746,9.3321 C419.143,7.6741 418.931,5.8241 418.376,3.9561 C418.196,3.3451 417.785,2.7881 417.114,2.6431 C414.672,2.1121 412.416,3.5181 412.303,5.8511 C412.249,6.9801 412.364,8.0491 412.852,9.0761 C413.108,9.6211 413.323,10.1841 413.628,10.9061 C412.233,11.4251 411.003,11.9221 409.751,12.3451 C406.48,13.4531 403.374,13.0041 400.456,11.2181 C400.024,10.9561 399.717,10.4851 399.36,10.1191 C399.739,9.5131 400.04,9.0511 400.322,8.5801 C401.249,7.0281 401.175,5.3941 400.55,3.7961 C399.825,1.9381 398.299,1.3221 396.577,2.1571 C396.109,2.3851 395.663,2.8041 395.38,3.2461 C394.496,4.6211 394.105,6.1281 394.538,7.7581 C394.78,8.6551 395.071,9.5381 395.353,10.4721 C394.49,11.2521 393.429,11.5621 392.393,11.9141 C389.638,12.8451 386.812,12.8341 383.971,12.4941 C382.424,12.3081 380.997,11.5151 379.724,10.2381 C380.047,9.4431 380.444,8.6691 380.674,7.8461 C380.884,7.0991 381.036,6.2951 380.998,5.5271 C380.918,3.9761 380.351,2.6141 379.018,1.6711 C377.163,0.3601 375.038,0.9521 374.204,3.0421 C374.031,3.4731 373.918,3.9461 373.876,4.4081 C373.688,6.5471 373.65,8.6701 374.8,10.6151 C374.911,10.8021 374.907,11.0581 374.969,11.3361 C373.331,12.5961 371.368,13.1231 369.439,13.1491 C366.443,13.1911 363.467,12.6791 360.706,11.3691 C360.375,11.2111 360.118,10.8921 359.789,10.6151 C360.263,9.6171 360.697,8.7011 361.129,7.7851 C361.507,6.9811 361.663,6.1351 361.572,5.2521 C361.401,3.6081 359.908,2.0631 358.352,1.9031 C356.746,1.7381 355.255,2.6821 354.569,4.1861 C353.671,6.1481 353.883,8.0151 354.899,9.8471 C355.116,10.2421 355.374,10.6131 355.615,10.9991 C351.572,13.3451 344.025,13.2521 341.125,10.8261 C341.341,10.3511 341.555,9.8521 341.792,9.3631 C342.591,7.7141 342.555,6.0471 342.064,4.3101 C341.667,2.9071 339.604,1.8871 338.247,2.1541 C336.914,2.4151 335.663,4.0301 335.77,5.4961 C335.912,7.4681 336.148,9.4301 337.403,11.0921 C337.522,11.2491 337.501,11.5121 337.544,11.7181 C337.327,11.9131 337.179,12.1201 336.978,12.2201 C332.39,14.5311 327.63,14.8851 322.747,13.3491 C321.186,12.8591 320.07,11.7851 319.427,10.3001 C319.828,9.5231 320.258,8.8521 320.527,8.1211 C320.796,7.3921 320.971,6.6101 321.068,5.8361 C321.285,4.0871 320.04,2.4021 318.467,2.2181 C316.66,2.0071 315.082,3.2961 315.013,5.2521 C314.971,6.4131 315.261,7.5881 315.413,8.7531 C315.491,9.3511 315.595,9.9461 315.691,10.5711 C314.132,11.3671 312.589,11.6661 311.072,12.0821 C308.495,12.7851 305.919,12.7751 303.349,12.2181 C301.736,11.8691 300.193,11.2771 298.932,9.9601 C299.162,9.5991 299.372,9.2811 299.57,8.9571 C300.185,7.9511 300.887,6.9861 301.385,5.9241 C302.217,4.1501 301.44,2.3941 299.609,1.7361 C299.019,1.5241 298.39,1.3951 297.769,1.3051 C296.171,1.0711 294.704,1.9911 294.417,3.5841 C294.065,5.5371 293.958,7.5131 295.161,9.2991 C295.361,9.5951 295.464,9.9591 295.634,10.3431 C293.32,12.2121 290.697,13.1091 287.984,13.5491 C285.598,13.9331 283.553,13.3711 281.959,11.8901 C281.909,11.5851 282.019,11.2361 282.28,10.7891 C282.997,9.5531 283.663,8.2951 283.938,6.8921 C284.086,6.1361 284.127,5.3201 284.019,4.5601 C283.789,2.9311 282.149,1.4511 280.654,1.3831 C278.964,1.3071 277.894,2.1941 277.265,4.0841 C276.744,5.6481 276.9,7.1951 277.232,8.7521 C277.374,9.4221 277.535,10.0901 277.675,10.7071 C273.013,13.4701 266.575,13.4001 264.051,10.7541 C264.15,10.5631 264.214,10.3201 264.366,10.1621 C265.912,8.5451 265.813,6.5781 265.531,4.5931 C265.367,3.4491 264.252,2.2681 263.289,2.0871 C261.739,1.7951 260.202,2.5691 259.632,4.0281 C258.925,5.8361 258.643,7.6741 259.48,9.5471 C259.657,9.9421 259.704,10.3971 259.798,10.7691 C259.538,10.9521 259.425,11.0741 259.284,11.1251 C255.597,12.4591 251.771,12.8931 247.888,12.6441 C246.504,12.5551 245.113,12.1211 243.929,11.0101 C244.275,10.6191 244.577,10.2881 244.867,9.9451 C246.465,8.0491 246.564,5.0191 245.092,3.1621 C244.088,1.8951 241.917,1.6591 240.655,2.6851 C239.493,3.6291 238.782,4.7881 238.842,6.3501 C238.881,7.3821 238.966,8.3811 239.467,9.3221 C239.747,9.8461 239.875,10.4521 240.081,11.0451 C238.783,11.8221 237.583,12.3431 236.218,12.5071 C235.046,12.6481 233.877,12.8511 232.725,13.1091 C229.727,13.7791 226.76,13.2991 223.797,12.8921 C223.108,12.7971 222.429,12.5061 221.791,12.2071 C221.399,12.0231 221.094,11.6541 220.787,11.4001 C221.141,10.3771 221.479,9.4951 221.753,8.5931 C222.304,6.7761 221.833,5.1401 220.664,3.7311 C219.864,2.7641 218.766,2.3211 217.488,2.6111 C215.914,2.9681 215.104,4.1831 215.315,6.0351 C215.467,7.3671 215.837,8.6601 216.523,9.8431 C216.785,10.2971 216.972,10.7911 217.207,11.2971 C216.09,12.1961 214.82,12.4271 213.648,12.8381 C210.865,13.8131 207.976,14.2241 205.035,14.0131 C203.215,13.8851 201.508,13.3321 200.039,11.9611 C200.337,11.4881 200.601,11.1131 200.819,10.7171 C201.198,10.0271 201.636,9.3531 201.898,8.6181 C202.642,6.5311 201.803,4.3591 199.929,3.3291 C198.772,2.6911 197.585,2.8151 196.712,3.7831 C196.308,4.2311 196.012,4.8101 195.784,5.3771 C195.188,6.8651 195.684,8.3311 195.994,9.7881 C196.122,10.3871 196.563,10.9391 196.159,11.7421 C195.582,12.0391 194.912,12.4611 194.188,12.7361 C193.381,13.0431 192.53,13.2381 191.688,13.4461 C187.917,14.3811 184.181,14.1271 180.488,13.0331 C179.496,12.7381 178.608,12.2291 177.976,11.2571 C178.436,10.6271 178.931,10.0151 179.352,9.3571 C180.181,8.0621 180.68,6.6701 180.352,5.0971 C180.022,3.5201 178.614,2.3741 176.953,2.3161 C175.507,2.2641 174.107,3.3641 173.651,4.8341 C173.214,6.2401 173.217,7.6231 173.664,9.0211 C173.873,9.6741 174.322,10.2831 174.062,11.1031 C173.833,11.2461 173.587,11.4591 173.302,11.5641 C169.614,12.9411 165.795,13.3201 161.909,12.8451 C160.239,12.6421 158.71,12.0031 157.82,10.2871 C158.204,9.7891 158.61,9.3131 158.959,8.7991 C160.314,6.8021 160.015,4.4351 158.281,2.7991 C157.225,1.8031 155.951,1.7241 154.759,2.1571 C153.712,2.5381 153.004,3.4541 152.91,4.6951 C152.797,6.2011 152.72,7.6901 153.458,9.0921 C153.668,9.4901 153.808,9.9251 154.035,10.4761 C150.373,12.2571 146.744,13.3741 142.773,12.5641 C141.498,12.3051 140.168,11.9591 139.476,10.5761 C139.779,10.1081 139.997,9.6851 140.295,9.3321 C141.692,7.6741 141.481,5.8241 140.926,3.9561 C140.745,3.3451 140.334,2.7881 139.664,2.6431 C137.22,2.1121 134.966,3.5181 134.852,5.8511 C134.797,6.9801 134.913,8.0491 135.4,9.0761 C135.657,9.6211 135.872,10.1841 136.177,10.9061 C134.781,11.4251 133.552,11.9221 132.3,12.3451 C129.029,13.4531 125.923,13.0041 123.004,11.2181 C122.572,10.9561 122.266,10.4851 121.909,10.1191 C122.288,9.5131 122.589,9.0511 122.871,8.5801 C123.799,7.0281 123.724,5.3941 123.099,3.7961 C122.374,1.9381 120.848,1.3221 119.126,2.1571 C118.657,2.3851 118.213,2.8041 117.929,3.2461 C117.045,4.6211 116.653,6.1281 117.088,7.7581 C117.327,8.6551 117.619,9.5381 117.902,10.4721 C117.039,11.2521 115.977,11.5621 114.941,11.9141 C112.186,12.8451 109.36,12.8341 106.52,12.4941 C104.972,12.3081 103.546,11.5151 102.273,10.2381 C102.596,9.4431 102.992,8.6691 103.223,7.8461 C103.433,7.0991 103.586,6.2951 103.546,5.5271 C103.467,3.9761 102.9,2.6141 101.567,1.6711 C99.713,0.3601 97.587,0.9521 96.753,3.0421 C96.58,3.4731 96.467,3.9461 96.426,4.4081 C96.236,6.5471 96.198,8.6701 97.349,10.6151 C97.46,10.8021 97.456,11.0581 97.518,11.3361 C95.881,12.5961 93.917,13.1231 91.987,13.1491 C88.991,13.1911 86.016,12.6791 83.256,11.3691 C82.924,11.2111 82.668,10.8921 82.339,10.6151 C82.811,9.6171 83.246,8.7011 83.678,7.7851 C84.055,6.9811 84.212,6.1351 84.12,5.2521 C83.949,3.6081 82.457,2.0631 80.902,1.9031 C79.295,1.7381 77.804,2.6821 77.117,4.1861 C76.22,6.1481 76.432,8.0151 77.447,9.8471 C77.665,10.2421 77.924,10.6131 78.165,10.9991 C74.12,13.3451 66.573,13.2521 63.675,10.8261 C63.889,10.3511 64.104,9.8521 64.342,9.3631 C65.14,7.7141 65.103,6.0471 64.612,4.3101 C64.216,2.9071 62.152,1.8871 60.797,2.1541 C59.463,2.4151 58.213,4.0301 58.319,5.4961 C58.462,7.4681 58.696,9.4301 59.951,11.0921 C60.071,11.2491 60.05,11.5121 60.093,11.7181 C59.876,11.9131 59.728,12.1201 59.527,12.2201 C54.939,14.5311 50.178,14.8851 45.296,13.3491 C43.735,12.8591 42.618,11.7851 41.976,10.3001 C42.377,9.5231 42.807,8.8521 43.076,8.1211 C43.344,7.3921 43.52,6.6101 43.616,5.8361 C43.834,4.0871 42.589,2.4021 41.016,2.2181 C39.209,2.0071 37.631,3.2961 37.561,5.2521 C37.52,6.4131 37.81,7.5881 37.962,8.7531 C38.04,9.3511 38.143,9.9461 38.239,10.5711 C36.681,11.3671 35.138,11.6661 33.621,12.0821 C31.043,12.7851 28.468,12.7751 25.898,12.2181 C24.285,11.8691 22.741,11.2771 21.481,9.9601 C21.711,9.5991 21.921,9.2811 22.119,8.9571 C22.733,7.9511 23.436,6.9861 23.934,5.9241 C24.765,4.1501 23.988,2.3941 22.157,1.7361 C21.568,1.5241 20.939,1.3951 20.318,1.3051 C18.719,1.0711 17.253,1.9911 16.966,3.5841 C16.614,5.5371 16.507,7.5131 17.709,9.2991 C17.909,9.5951 18.012,9.9591 18.183,10.3431 C15.869,12.2121 13.245,13.1091 10.532,13.5491 C7.28,14.0741 4.652,12.8551 2.953,9.9171 C2.834,9.7131 2.712,9.5081 2.574,9.3161 C2.201,8.7991 1.754,8.6181 1.394,8.8311 C1.002,9.0641 0.855,9.5821 1.103,10.0771 C1.526,10.9221 2.031,11.7261 2.422,12.5861 C2.8,13.4181 3.407,13.9981 4.147,14.4761 C6.548,16.0231 9.146,16.3161 11.854,15.5581 C13.53,15.0901 15.097,14.3421 16.544,13.3491 C17.572,12.6421 18.634,11.9831 19.775,11.5291 C20.598,12.0251 21.319,12.5121 22.09,12.9061 C22.927,13.3351 23.777,13.8271 24.68,14.0271 C27.462,14.6421 30.275,15.0661 33.104,14.2571 C34.163,13.9551 35.218,13.6361 36.26,13.2761 C37.289,12.9211 38.299,12.5041 39.194,12.1601 C40.732,13.1251 42.082,14.0911 43.536,14.8571 C45.974,16.1441 48.643,16.3431 51.356,16.2911 C54.417,16.2301 57.275,15.5101 59.903,13.9181 C60.566,13.5171 61.242,13.1361 61.811,12.8051 C69.072,15.8741 75.028,15.1351 79.971,12.6191 C86.471,15.9871 92.924,15.5771 99.588,12.8021 C106.188,15.7911 112.883,15.0321 119.397,12.2401 C121.714,13.5231 124.123,14.2241 126.501,15.0001 C127.171,15.2181 127.886,15.4241 128.58,15.4221 C130.7,15.4101 132.838,15.3971 134.754,14.2511 C135.684,13.6951 136.627,13.1601 137.684,12.5471 C140.358,14.3261 143.374,15.0601 146.597,15.0621 C149.919,15.0661 152.834,13.7091 155.696,12.3021 C156.202,12.5921 156.63,12.7991 157.017,13.0631 C161.654,16.2281 166.685,15.9681 171.785,14.6721 C173.205,14.3101 174.527,13.5611 175.927,12.9761 C176.52,13.3861 177.07,13.8441 177.688,14.1771 C178.447,14.5841 179.23,15.0231 180.056,15.2121 C185.501,16.4491 190.837,16.1701 196.003,13.9031 C196.496,13.6861 197.018,13.5371 197.531,13.3531 C197.922,13.6431 198.251,13.8561 198.544,14.1101 C200.164,15.5101 202.088,16.1331 204.179,16.2881 C206.706,16.4741 209.217,16.2771 211.71,15.8361 C214.297,15.3761 216.713,14.4551 218.885,13.1381 C219.144,13.1971 219.306,13.2031 219.44,13.2671 C222.102,14.5521 224.858,15.4201 227.866,15.1771 C228.023,15.1661 228.182,15.1721 228.339,15.1791 C232.974,15.4221 237.408,14.5961 241.689,12.7011 C242.348,13.0231 243.023,13.4431 243.754,13.6951 C246.481,14.6361 249.296,14.8521 252.148,14.5121 C254.255,14.2611 256.344,13.8451 258.454,13.6571 C259.8,13.5361 261.081,13.3241 262.197,12.6311 C267.823,15.5801 273.487,15.4471 279.267,13.2711 C279.866,13.7371 280.435,14.1461 280.976,14.5881 C283.39,16.5641 288.667,15.7381 289.305,15.5581 C290.982,15.0901 292.548,14.3421 293.995,13.3491 C295.024,12.6421 296.085,11.9831 297.226,11.5291 C298.049,12.0251 298.771,12.5121 299.54,12.9061 C300.378,13.3351 301.228,13.8271 302.132,14.0271 C304.913,14.6421 307.727,15.0661 310.555,14.2571 C311.614,13.9551 312.67,13.6361 313.71,13.2761 C314.741,12.9211 315.749,12.5041 316.645,12.1601 C318.184,13.1251 319.532,14.0911 320.988,14.8571 C323.425,16.1441 326.095,16.3431 328.807,16.2911 C331.868,16.2301 334.726,15.5101 337.353,13.9181 C338.017,13.5171 338.695,13.1361 339.262,12.8051 C346.523,15.8741 352.479,15.1351 357.422,12.6191 C363.922,15.9871 370.375,15.5771 377.039,12.8021 C383.639,15.7911 390.335,15.0321 396.848,12.2401 C399.165,13.5231 401.575,14.2241 403.952,15.0001 C404.622,15.2181 405.337,15.4241 406.031,15.4221 C408.152,15.4101 410.29,15.3971 412.204,14.2511 C413.135,13.6951 414.078,13.1601 415.135,12.5471 C417.808,14.3261 420.824,15.0601 424.049,15.0621 C427.37,15.0661 430.285,13.7091 433.148,12.3021 C433.655,12.5921 434.081,12.7991 434.469,13.0631 C439.105,16.2281 444.137,15.9681 449.237,14.6721 C450.656,14.3101 451.978,13.5611 453.378,12.9761 C453.971,13.3861 454.522,13.8441 455.139,14.1771 C455.898,14.5841 456.682,15.0231 457.508,15.2121 C462.951,16.4491 468.287,16.1701 473.454,13.9031 C473.947,13.6861 474.469,13.5371 474.983,13.3531 C475.373,13.6431 475.702,13.8561 475.994,14.1101 C477.614,15.5101 479.539,16.1331 481.63,16.2881 C484.157,16.4741 486.668,16.2771 489.161,15.8361 C491.748,15.3761 494.164,14.4551 496.337,13.1381 C496.595,13.1971 496.757,13.2031 496.892,13.2671 C499.554,14.5521 502.309,15.4201 505.318,15.1771 C505.473,15.1661 505.633,15.1721 505.79,15.1791 C510.425,15.4221 514.861,14.5961 519.14,12.7011 C519.799,13.0231 520.474,13.4431 521.205,13.6951 C523.931,14.6361 526.747,14.8521 529.6,14.5121 C531.706,14.2611 533.795,13.8451 535.906,13.6571 C537.251,13.5361 538.531,13.3241 539.649,12.6311 C545.274,15.5801 550.939,15.4471 556.718,13.2711 C557.319,13.7371 557.852,14.1921 558.427,14.5881 C559.01,14.9891 559.628,15.3401 560.239,15.6991 C561.138,16.2261 562.116,16.5621 563.156,16.5641 C563.831,16.5641 564.59,16.5531 565.024,15.6321 C564.634,15.0351 564.217,14.3941 563.801,13.7561 L563.801,13.7561 Z" id="Fill-247" fill="#FFED00"></path>
    </g>
</svg>